<?xml version="1.0" encoding="UTF-8" standalone="no"?>
<!DOCTYPE svg PUBLIC "-//W3C//DTD SVG 1.1//EN"
 "http://www.w3.org/Graphics/SVG/1.1/DTD/svg11.dtd">
<!-- Generated by graphviz version 3.0.0 (20220226.1711)
 -->
<!-- Title: dependencies Pages: 1 -->
<svg width="11475pt" height="247pt"
 viewBox="0.00 0.00 11475.00 246.80" xmlns="http://www.w3.org/2000/svg" xmlns:xlink="http://www.w3.org/1999/xlink">
<g id="graph0" class="graph" transform="scale(1 1) rotate(0) translate(4 242.8)">
<title>dependencies</title>
<polygon fill="white" stroke="transparent" points="-4,4 -4,-242.8 11471,-242.8 11471,4 -4,4"/>
<text text-anchor="middle" x="5733.5" y="-8.2" font-family="sans-serif" font-size="14.00">dependencies</text>
<g id="clust1" class="cluster">
<title>cluster_AppModule</title>
<polygon fill="none" stroke="black" stroke-dasharray="1,5" points="8,-32.8 8,-230.8 11459,-230.8 11459,-32.8 8,-32.8"/>
</g>
<g id="clust64" class="cluster">
<title>cluster_AppModule_imports</title>
<polygon fill="none" stroke="black" points="11307,-40.8 11307,-92.8 11451,-92.8 11451,-40.8 11307,-40.8"/>
</g>
<g id="clust66" class="cluster">
<title>cluster_AppModule_bootstrap</title>
<polygon fill="none" stroke="black" points="5700,-170.8 5700,-222.8 5824,-222.8 5824,-170.8 5700,-170.8"/>
</g>
<g id="clust2" class="cluster">
<title>cluster_AppModule_declarations</title>
<polygon fill="none" stroke="black" points="16,-40.8 16,-92.8 11299,-92.8 11299,-40.8 16,-40.8"/>
</g>
<!-- AdministradorRegistroComponent -->
<g id="node1" class="node">
<title>AdministradorRegistroComponent</title>
<polygon fill="#ffffb3" stroke="black" points="11291.43,-84.8 11080.57,-84.8 11080.57,-48.8 11291.43,-48.8 11291.43,-84.8"/>
<text text-anchor="middle" x="11186" y="-62.6" font-family="Times,serif" font-size="14.00">AdministradorRegistroComponent</text>
</g>
<!-- AppModule -->
<g id="node62" class="node">
<title>AppModule</title>
<polygon fill="#8dd3c7" stroke="black" points="5803.66,-149.8 5800.66,-153.8 5779.66,-153.8 5776.66,-149.8 5720.34,-149.8 5720.34,-113.8 5803.66,-113.8 5803.66,-149.8"/>
<text text-anchor="middle" x="5762" y="-127.6" font-family="Times,serif" font-size="14.00">AppModule</text>
</g>
<!-- AdministradorRegistroComponent&#45;&gt;AppModule -->
<g id="edge1" class="edge">
<title>AdministradorRegistroComponent&#45;&gt;AppModule</title>
<path fill="none" stroke="black" d="M11186,-85.18C11186,-109.08 11186,-147.8 11186,-147.8 11186,-147.8 5813.7,-147.8 5813.7,-147.8"/>
<polygon fill="black" stroke="black" points="5813.7,-144.3 5803.7,-147.8 5813.7,-151.3 5813.7,-144.3"/>
</g>
<!-- AppComponent -->
<g id="node2" class="node">
<title>AppComponent</title>
<polygon fill="#ffffb3" stroke="black" points="11062.94,-84.8 10957.06,-84.8 10957.06,-48.8 11062.94,-48.8 11062.94,-84.8"/>
<text text-anchor="middle" x="11010" y="-62.6" font-family="Times,serif" font-size="14.00">AppComponent</text>
</g>
<!-- AppComponent&#45;&gt;AppModule -->
<g id="edge2" class="edge">
<title>AppComponent&#45;&gt;AppModule</title>
<path fill="none" stroke="black" d="M11010,-84.95C11010,-108.56 11010,-146.8 11010,-146.8 11010,-146.8 5813.86,-146.8 5813.86,-146.8"/>
<polygon fill="black" stroke="black" points="5813.86,-143.3 5803.86,-146.8 5813.86,-150.3 5813.86,-143.3"/>
</g>
<!-- BalanceAyudaComponent -->
<g id="node3" class="node">
<title>BalanceAyudaComponent</title>
<polygon fill="#ffffb3" stroke="black" points="10938.74,-84.8 10775.26,-84.8 10775.26,-48.8 10938.74,-48.8 10938.74,-84.8"/>
<text text-anchor="middle" x="10857" y="-62.6" font-family="Times,serif" font-size="14.00">BalanceAyudaComponent</text>
</g>
<!-- BalanceAyudaComponent&#45;&gt;AppModule -->
<g id="edge3" class="edge">
<title>BalanceAyudaComponent&#45;&gt;AppModule</title>
<path fill="none" stroke="black" d="M10857,-85.12C10857,-108.46 10857,-145.8 10857,-145.8 10857,-145.8 5813.76,-145.8 5813.76,-145.8"/>
<polygon fill="black" stroke="black" points="5813.76,-142.3 5803.76,-145.8 5813.76,-149.3 5813.76,-142.3"/>
</g>
<!-- BalanceListaComponent -->
<g id="node4" class="node">
<title>BalanceListaComponent</title>
<polygon fill="#ffffb3" stroke="black" points="10757.41,-84.8 10602.59,-84.8 10602.59,-48.8 10757.41,-48.8 10757.41,-84.8"/>
<text text-anchor="middle" x="10680" y="-62.6" font-family="Times,serif" font-size="14.00">BalanceListaComponent</text>
</g>
<!-- BalanceListaComponent&#45;&gt;AppModule -->
<g id="edge4" class="edge">
<title>BalanceListaComponent&#45;&gt;AppModule</title>
<path fill="none" stroke="black" d="M10680,-84.89C10680,-107.93 10680,-144.8 10680,-144.8 10680,-144.8 5813.77,-144.8 5813.77,-144.8"/>
<polygon fill="black" stroke="black" points="5813.77,-141.3 5803.77,-144.8 5813.77,-148.3 5813.77,-141.3"/>
</g>
<!-- BalanceXAnioComponent -->
<g id="node5" class="node">
<title>BalanceXAnioComponent</title>
<polygon fill="#ffffb3" stroke="black" points="10585.03,-84.8 10420.97,-84.8 10420.97,-48.8 10585.03,-48.8 10585.03,-84.8"/>
<text text-anchor="middle" x="10503" y="-62.6" font-family="Times,serif" font-size="14.00">BalanceXAnioComponent</text>
</g>
<!-- BalanceXAnioComponent&#45;&gt;AppModule -->
<g id="edge5" class="edge">
<title>BalanceXAnioComponent&#45;&gt;AppModule</title>
<path fill="none" stroke="black" d="M10503,-85.05C10503,-107.82 10503,-143.8 10503,-143.8 10503,-143.8 5813.71,-143.8 5813.71,-143.8"/>
<polygon fill="black" stroke="black" points="5813.71,-140.3 5803.71,-143.8 5813.71,-147.3 5813.71,-140.3"/>
</g>
<!-- BalanceXInmuebleComponent -->
<g id="node6" class="node">
<title>BalanceXInmuebleComponent</title>
<polygon fill="#ffffb3" stroke="black" points="10402.89,-84.8 10213.11,-84.8 10213.11,-48.8 10402.89,-48.8 10402.89,-84.8"/>
<text text-anchor="middle" x="10308" y="-62.6" font-family="Times,serif" font-size="14.00">BalanceXInmuebleComponent</text>
</g>
<!-- BalanceXInmuebleComponent&#45;&gt;AppModule -->
<g id="edge6" class="edge">
<title>BalanceXInmuebleComponent&#45;&gt;AppModule</title>
<path fill="none" stroke="black" d="M10308,-84.96C10308,-107.15 10308,-141.8 10308,-141.8 10308,-141.8 5813.75,-141.8 5813.75,-141.8"/>
<polygon fill="black" stroke="black" points="5813.75,-138.3 5803.75,-141.8 5813.75,-145.3 5813.75,-138.3"/>
</g>
<!-- BalanceXMesComponent -->
<g id="node7" class="node">
<title>BalanceXMesComponent</title>
<polygon fill="#ffffb3" stroke="black" points="10195.14,-84.8 10034.86,-84.8 10034.86,-48.8 10195.14,-48.8 10195.14,-84.8"/>
<text text-anchor="middle" x="10115" y="-62.6" font-family="Times,serif" font-size="14.00">BalanceXMesComponent</text>
</g>
<!-- BalanceXMesComponent&#45;&gt;AppModule -->
<g id="edge7" class="edge">
<title>BalanceXMesComponent&#45;&gt;AppModule</title>
<path fill="none" stroke="black" d="M10115,-85.09C10115,-107.01 10115,-140.8 10115,-140.8 10115,-140.8 5813.69,-140.8 5813.69,-140.8"/>
<polygon fill="black" stroke="black" points="5813.69,-137.3 5803.69,-140.8 5813.69,-144.3 5813.69,-137.3"/>
</g>
<!-- ClienteDetalleComponent -->
<g id="node8" class="node">
<title>ClienteDetalleComponent</title>
<polygon fill="#ffffb3" stroke="black" points="10017.19,-84.8 9854.81,-84.8 9854.81,-48.8 10017.19,-48.8 10017.19,-84.8"/>
<text text-anchor="middle" x="9936" y="-62.6" font-family="Times,serif" font-size="14.00">ClienteDetalleComponent</text>
</g>
<!-- ClienteDetalleComponent&#45;&gt;AppModule -->
<g id="edge8" class="edge">
<title>ClienteDetalleComponent&#45;&gt;AppModule</title>
<path fill="none" stroke="black" d="M9936,-84.84C9936,-106.46 9936,-139.8 9936,-139.8 9936,-139.8 5813.99,-139.8 5813.99,-139.8"/>
<polygon fill="black" stroke="black" points="5813.99,-136.3 5803.99,-139.8 5813.99,-143.3 5813.99,-136.3"/>
</g>
<!-- ClienteListaComponent -->
<g id="node9" class="node">
<title>ClienteListaComponent</title>
<polygon fill="#ffffb3" stroke="black" points="9836.76,-84.8 9687.24,-84.8 9687.24,-48.8 9836.76,-48.8 9836.76,-84.8"/>
<text text-anchor="middle" x="9762" y="-62.6" font-family="Times,serif" font-size="14.00">ClienteListaComponent</text>
</g>
<!-- ClienteListaComponent&#45;&gt;AppModule -->
<g id="edge9" class="edge">
<title>ClienteListaComponent&#45;&gt;AppModule</title>
<path fill="none" stroke="black" d="M9762,-84.97C9762,-106.3 9762,-138.8 9762,-138.8 9762,-138.8 5813.88,-138.8 5813.88,-138.8"/>
<polygon fill="black" stroke="black" points="5813.88,-135.3 5803.88,-138.8 5813.88,-142.3 5813.88,-135.3"/>
</g>
<!-- ClienteRegistroComponent -->
<g id="node10" class="node">
<title>ClienteRegistroComponent</title>
<polygon fill="#ffffb3" stroke="black" points="9669.71,-84.8 9500.29,-84.8 9500.29,-48.8 9669.71,-48.8 9669.71,-84.8"/>
<text text-anchor="middle" x="9585" y="-62.6" font-family="Times,serif" font-size="14.00">ClienteRegistroComponent</text>
</g>
<!-- ClienteRegistroComponent&#45;&gt;AppModule -->
<g id="edge10" class="edge">
<title>ClienteRegistroComponent&#45;&gt;AppModule</title>
<path fill="none" stroke="black" d="M9585,-85.08C9585,-106.12 9585,-137.8 9585,-137.8 9585,-137.8 5813.96,-137.8 5813.96,-137.8"/>
<polygon fill="black" stroke="black" points="5813.96,-134.3 5803.96,-137.8 5813.96,-141.3 5813.96,-134.3"/>
</g>
<!-- ComoFuncionaComponent -->
<g id="node11" class="node">
<title>ComoFuncionaComponent</title>
<polygon fill="#ffffb3" stroke="black" points="9482.66,-84.8 9315.34,-84.8 9315.34,-48.8 9482.66,-48.8 9482.66,-84.8"/>
<text text-anchor="middle" x="9399" y="-62.6" font-family="Times,serif" font-size="14.00">ComoFuncionaComponent</text>
</g>
<!-- ComoFuncionaComponent&#45;&gt;AppModule -->
<g id="edge11" class="edge">
<title>ComoFuncionaComponent&#45;&gt;AppModule</title>
<path fill="none" stroke="black" d="M9399,-84.83C9399,-105.57 9399,-136.8 9399,-136.8 9399,-136.8 5813.79,-136.8 5813.79,-136.8"/>
<polygon fill="black" stroke="black" points="5813.79,-133.3 5803.79,-136.8 5813.79,-140.3 5813.79,-133.3"/>
</g>
<!-- ContactoComponent -->
<g id="node12" class="node">
<title>ContactoComponent</title>
<polygon fill="#ffffb3" stroke="black" points="9296.88,-84.8 9165.12,-84.8 9165.12,-48.8 9296.88,-48.8 9296.88,-84.8"/>
<text text-anchor="middle" x="9231" y="-62.6" font-family="Times,serif" font-size="14.00">ContactoComponent</text>
</g>
<!-- ContactoComponent&#45;&gt;AppModule -->
<g id="edge12" class="edge">
<title>ContactoComponent&#45;&gt;AppModule</title>
<path fill="none" stroke="black" d="M9231,-85.02C9231,-105.17 9231,-134.8 9231,-134.8 9231,-134.8 5813.68,-134.8 5813.68,-134.8"/>
<polygon fill="black" stroke="black" points="5813.68,-131.3 5803.68,-134.8 5813.68,-138.3 5813.68,-131.3"/>
</g>
<!-- ContratoAyudaComponent -->
<g id="node13" class="node">
<title>ContratoAyudaComponent</title>
<polygon fill="#ffffb3" stroke="black" points="9146.65,-84.8 8979.35,-84.8 8979.35,-48.8 9146.65,-48.8 9146.65,-84.8"/>
<text text-anchor="middle" x="9063" y="-62.6" font-family="Times,serif" font-size="14.00">ContratoAyudaComponent</text>
</g>
<!-- ContratoAyudaComponent&#45;&gt;AppModule -->
<g id="edge13" class="edge">
<title>ContratoAyudaComponent&#45;&gt;AppModule</title>
<path fill="none" stroke="black" d="M9063,-85.11C9063,-104.95 9063,-133.8 9063,-133.8 9063,-133.8 5813.74,-133.8 5813.74,-133.8"/>
<polygon fill="black" stroke="black" points="5813.74,-130.3 5803.74,-133.8 5813.74,-137.3 5813.74,-130.3"/>
</g>
<!-- ContratoDetalleComponent -->
<g id="node14" class="node">
<title>ContratoDetalleComponent</title>
<polygon fill="#ffffb3" stroke="black" points="8961.25,-84.8 8790.75,-84.8 8790.75,-48.8 8961.25,-48.8 8961.25,-84.8"/>
<text text-anchor="middle" x="8876" y="-62.6" font-family="Times,serif" font-size="14.00">ContratoDetalleComponent</text>
</g>
<!-- ContratoDetalleComponent&#45;&gt;AppModule -->
<g id="edge14" class="edge">
<title>ContratoDetalleComponent&#45;&gt;AppModule</title>
<path fill="none" stroke="black" d="M8876,-84.83C8876,-104.38 8876,-132.8 8876,-132.8 8876,-132.8 5813.67,-132.8 5813.67,-132.8"/>
<polygon fill="black" stroke="black" points="5813.67,-129.3 5803.67,-132.8 5813.67,-136.3 5813.67,-129.3"/>
</g>
<!-- ContratoListaComponent -->
<g id="node15" class="node">
<title>ContratoListaComponent</title>
<polygon fill="#ffffb3" stroke="black" points="8772.32,-84.8 8613.68,-84.8 8613.68,-48.8 8772.32,-48.8 8772.32,-84.8"/>
<text text-anchor="middle" x="8693" y="-62.6" font-family="Times,serif" font-size="14.00">ContratoListaComponent</text>
</g>
<!-- ContratoListaComponent&#45;&gt;AppModule -->
<g id="edge15" class="edge">
<title>ContratoListaComponent&#45;&gt;AppModule</title>
<path fill="none" stroke="black" d="M8693,-84.91C8693,-104.14 8693,-131.8 8693,-131.8 8693,-131.8 5813.71,-131.8 5813.71,-131.8"/>
<polygon fill="black" stroke="black" points="5813.71,-128.3 5803.71,-131.8 5813.71,-135.3 5813.71,-128.3"/>
</g>
<!-- ContratoRegistroComponent -->
<g id="node16" class="node">
<title>ContratoRegistroComponent</title>
<polygon fill="#ffffb3" stroke="black" points="8595.77,-84.8 8418.23,-84.8 8418.23,-48.8 8595.77,-48.8 8595.77,-84.8"/>
<text text-anchor="middle" x="8507" y="-62.6" font-family="Times,serif" font-size="14.00">ContratoRegistroComponent</text>
</g>
<!-- ContratoRegistroComponent&#45;&gt;AppModule -->
<g id="edge16" class="edge">
<title>ContratoRegistroComponent&#45;&gt;AppModule</title>
<path fill="none" stroke="black" d="M8507,-84.97C8507,-103.89 8507,-130.8 8507,-130.8 8507,-130.8 5813.75,-130.8 5813.75,-130.8"/>
<polygon fill="black" stroke="black" points="5813.75,-127.3 5803.75,-130.8 5813.75,-134.3 5813.75,-127.3"/>
</g>
<!-- EntidadesAyudaComponent -->
<g id="node17" class="node">
<title>EntidadesAyudaComponent</title>
<polygon fill="#ffffb3" stroke="black" points="8399.86,-84.8 8226.14,-84.8 8226.14,-48.8 8399.86,-48.8 8399.86,-84.8"/>
<text text-anchor="middle" x="8313" y="-62.6" font-family="Times,serif" font-size="14.00">EntidadesAyudaComponent</text>
</g>
<!-- EntidadesAyudaComponent&#45;&gt;AppModule -->
<g id="edge17" class="edge">
<title>EntidadesAyudaComponent&#45;&gt;AppModule</title>
<path fill="none" stroke="black" d="M8313,-85.02C8313,-103.63 8313,-129.8 8313,-129.8 8313,-129.8 5813.89,-129.8 5813.89,-129.8"/>
<polygon fill="black" stroke="black" points="5813.89,-126.3 5803.89,-129.8 5813.89,-133.3 5813.89,-126.3"/>
</g>
<!-- InGaAyudaComponent -->
<g id="node18" class="node">
<title>InGaAyudaComponent</title>
<polygon fill="#ffffb3" stroke="black" points="8208.14,-84.8 8061.86,-84.8 8061.86,-48.8 8208.14,-48.8 8208.14,-84.8"/>
<text text-anchor="middle" x="8135" y="-62.6" font-family="Times,serif" font-size="14.00">InGaAyudaComponent</text>
</g>
<!-- InGaAyudaComponent&#45;&gt;AppModule -->
<g id="edge18" class="edge">
<title>InGaAyudaComponent&#45;&gt;AppModule</title>
<path fill="none" stroke="black" d="M8135,-85.1C8135,-103.07 8135,-127.8 8135,-127.8 8135,-127.8 5813.69,-127.8 5813.69,-127.8"/>
<polygon fill="black" stroke="black" points="5813.69,-124.3 5803.69,-127.8 5813.69,-131.3 5813.69,-124.3"/>
</g>
<!-- InGaInicioComponent -->
<g id="node19" class="node">
<title>InGaInicioComponent</title>
<polygon fill="#ffffb3" stroke="black" points="8043.97,-84.8 7902.03,-84.8 7902.03,-48.8 8043.97,-48.8 8043.97,-84.8"/>
<text text-anchor="middle" x="7973" y="-62.6" font-family="Times,serif" font-size="14.00">InGaInicioComponent</text>
</g>
<!-- InGaInicioComponent&#45;&gt;AppModule -->
<g id="edge19" class="edge">
<title>InGaInicioComponent&#45;&gt;AppModule</title>
<path fill="none" stroke="black" d="M7973,-84.8C7973,-102.48 7973,-126.8 7973,-126.8 7973,-126.8 5813.71,-126.8 5813.71,-126.8"/>
<polygon fill="black" stroke="black" points="5813.71,-123.3 5803.71,-126.8 5813.71,-130.3 5813.71,-123.3"/>
</g>
<!-- IngaDetalleComponent -->
<g id="node20" class="node">
<title>IngaDetalleComponent</title>
<polygon fill="#ffffb3" stroke="black" points="7884.13,-84.8 7737.87,-84.8 7737.87,-48.8 7884.13,-48.8 7884.13,-84.8"/>
<text text-anchor="middle" x="7811" y="-62.6" font-family="Times,serif" font-size="14.00">IngaDetalleComponent</text>
</g>
<!-- IngaDetalleComponent&#45;&gt;AppModule -->
<g id="edge20" class="edge">
<title>IngaDetalleComponent&#45;&gt;AppModule</title>
<path fill="none" stroke="black" d="M7811,-84.82C7811,-102.17 7811,-125.8 7811,-125.8 7811,-125.8 5813.86,-125.8 5813.86,-125.8"/>
<polygon fill="black" stroke="black" points="5813.86,-122.3 5803.86,-125.8 5813.86,-129.3 5813.86,-122.3"/>
</g>
<!-- IngaRegistroGeneralComponent -->
<g id="node21" class="node">
<title>IngaRegistroGeneralComponent</title>
<polygon fill="#ffffb3" stroke="black" points="7719.95,-84.8 7522.05,-84.8 7522.05,-48.8 7719.95,-48.8 7719.95,-84.8"/>
<text text-anchor="middle" x="7621" y="-62.6" font-family="Times,serif" font-size="14.00">IngaRegistroGeneralComponent</text>
</g>
<!-- IngaRegistroGeneralComponent&#45;&gt;AppModule -->
<g id="edge21" class="edge">
<title>IngaRegistroGeneralComponent&#45;&gt;AppModule</title>
<path fill="none" stroke="black" d="M7621,-84.83C7621,-101.86 7621,-124.8 7621,-124.8 7621,-124.8 5813.88,-124.8 5813.88,-124.8"/>
<polygon fill="black" stroke="black" points="5813.88,-121.3 5803.88,-124.8 5813.88,-128.3 5813.88,-121.3"/>
</g>
<!-- IngresoRegistroGeneralComponent -->
<g id="node22" class="node">
<title>IngresoRegistroGeneralComponent</title>
<polygon fill="#ffffb3" stroke="black" points="7503.56,-84.8 7288.44,-84.8 7288.44,-48.8 7503.56,-48.8 7503.56,-84.8"/>
<text text-anchor="middle" x="7396" y="-62.6" font-family="Times,serif" font-size="14.00">IngresoRegistroGeneralComponent</text>
</g>
<!-- IngresoRegistroGeneralComponent&#45;&gt;AppModule -->
<g id="edge22" class="edge">
<title>IngresoRegistroGeneralComponent&#45;&gt;AppModule</title>
<path fill="none" stroke="black" d="M7396,-84.84C7396,-101.53 7396,-123.8 7396,-123.8 7396,-123.8 5814.03,-123.8 5814.03,-123.8"/>
<polygon fill="black" stroke="black" points="5814.03,-120.3 5804.03,-123.8 5814.03,-127.3 5814.03,-120.3"/>
</g>
<!-- InicioAyudaComponent -->
<g id="node23" class="node">
<title>InicioAyudaComponent</title>
<polygon fill="#ffffb3" stroke="black" points="7270.81,-84.8 7119.19,-84.8 7119.19,-48.8 7270.81,-48.8 7270.81,-84.8"/>
<text text-anchor="middle" x="7195" y="-62.6" font-family="Times,serif" font-size="14.00">InicioAyudaComponent</text>
</g>
<!-- InicioAyudaComponent&#45;&gt;AppModule -->
<g id="edge23" class="edge">
<title>InicioAyudaComponent&#45;&gt;AppModule</title>
<path fill="none" stroke="black" d="M7195,-84.83C7195,-101.2 7195,-122.8 7195,-122.8 7195,-122.8 5813.73,-122.8 5813.73,-122.8"/>
<polygon fill="black" stroke="black" points="5813.73,-119.3 5803.73,-122.8 5813.73,-126.3 5813.73,-119.3"/>
</g>
<!-- InicioListaComponent -->
<g id="node24" class="node">
<title>InicioListaComponent</title>
<polygon fill="#ffffb3" stroke="black" points="7100.98,-84.8 6959.02,-84.8 6959.02,-48.8 7100.98,-48.8 7100.98,-84.8"/>
<text text-anchor="middle" x="7030" y="-62.6" font-family="Times,serif" font-size="14.00">InicioListaComponent</text>
</g>
<!-- InicioListaComponent&#45;&gt;AppModule -->
<g id="edge24" class="edge">
<title>InicioListaComponent&#45;&gt;AppModule</title>
<path fill="none" stroke="black" d="M7030,-85.08C7030,-100.75 7030,-120.8 7030,-120.8 7030,-120.8 5813.83,-120.8 5813.83,-120.8"/>
<polygon fill="black" stroke="black" points="5813.83,-117.3 5803.83,-120.8 5813.83,-124.3 5813.83,-117.3"/>
</g>
<!-- InmuebleDetalleComponent -->
<g id="node25" class="node">
<title>InmuebleDetalleComponent</title>
<polygon fill="#ffffb3" stroke="black" points="6941.12,-84.8 6766.88,-84.8 6766.88,-48.8 6941.12,-48.8 6941.12,-84.8"/>
<text text-anchor="middle" x="6854" y="-62.6" font-family="Times,serif" font-size="14.00">InmuebleDetalleComponent</text>
</g>
<!-- InmuebleDetalleComponent&#45;&gt;AppModule -->
<g id="edge25" class="edge">
<title>InmuebleDetalleComponent&#45;&gt;AppModule</title>
<path fill="none" stroke="black" d="M6854,-85.04C6854,-100.37 6854,-119.8 6854,-119.8 6854,-119.8 5813.81,-119.8 5813.81,-119.8"/>
<polygon fill="black" stroke="black" points="5813.81,-116.3 5803.81,-119.8 5813.81,-123.3 5813.81,-116.3"/>
</g>
<!-- InmuebleListaComponent -->
<g id="node26" class="node">
<title>InmuebleListaComponent</title>
<polygon fill="#ffffb3" stroke="black" points="6749.19,-84.8 6586.81,-84.8 6586.81,-48.8 6749.19,-48.8 6749.19,-84.8"/>
<text text-anchor="middle" x="6668" y="-62.6" font-family="Times,serif" font-size="14.00">InmuebleListaComponent</text>
</g>
<!-- InmuebleListaComponent&#45;&gt;AppModule -->
<g id="edge26" class="edge">
<title>InmuebleListaComponent&#45;&gt;AppModule</title>
<path fill="none" stroke="black" d="M6668,-84.99C6668,-99.98 6668,-118.8 6668,-118.8 6668,-118.8 5813.88,-118.8 5813.88,-118.8"/>
<polygon fill="black" stroke="black" points="5813.88,-115.3 5803.88,-118.8 5813.88,-122.3 5813.88,-115.3"/>
</g>
<!-- InmueblesAyudaComponent -->
<g id="node27" class="node">
<title>InmueblesAyudaComponent</title>
<polygon fill="#ffffb3" stroke="black" points="6568.47,-84.8 6391.53,-84.8 6391.53,-48.8 6568.47,-48.8 6568.47,-84.8"/>
<text text-anchor="middle" x="6480" y="-62.6" font-family="Times,serif" font-size="14.00">InmueblesAyudaComponent</text>
</g>
<!-- InmueblesAyudaComponent&#45;&gt;AppModule -->
<g id="edge27" class="edge">
<title>InmueblesAyudaComponent&#45;&gt;AppModule</title>
<path fill="none" stroke="black" d="M6480,-84.92C6480,-99.58 6480,-117.8 6480,-117.8 6480,-117.8 5813.71,-117.8 5813.71,-117.8"/>
<polygon fill="black" stroke="black" points="5813.71,-114.3 5803.71,-117.8 5813.71,-121.3 5813.71,-114.3"/>
</g>
<!-- InmueblesRegistroComponent -->
<g id="node28" class="node">
<title>InmueblesRegistroComponent</title>
<polygon fill="#ffffb3" stroke="black" points="6373.59,-84.8 6186.41,-84.8 6186.41,-48.8 6373.59,-48.8 6373.59,-84.8"/>
<text text-anchor="middle" x="6280" y="-62.6" font-family="Times,serif" font-size="14.00">InmueblesRegistroComponent</text>
</g>
<!-- InmueblesRegistroComponent&#45;&gt;AppModule -->
<g id="edge28" class="edge">
<title>InmueblesRegistroComponent&#45;&gt;AppModule</title>
<path fill="none" stroke="black" d="M6280,-84.85C6280,-99.17 6280,-116.8 6280,-116.8 6280,-116.8 5813.95,-116.8 5813.95,-116.8"/>
<polygon fill="black" stroke="black" points="5813.95,-113.3 5803.95,-116.8 5813.95,-120.3 5813.95,-113.3"/>
</g>
<!-- IntervinienteDetalleComponent -->
<g id="node29" class="node">
<title>IntervinienteDetalleComponent</title>
<polygon fill="#ffffb3" stroke="black" points="6168.78,-84.8 5975.22,-84.8 5975.22,-48.8 6168.78,-48.8 6168.78,-84.8"/>
<text text-anchor="middle" x="6072" y="-62.6" font-family="Times,serif" font-size="14.00">IntervinienteDetalleComponent</text>
</g>
<!-- IntervinienteDetalleComponent&#45;&gt;AppModule -->
<g id="edge29" class="edge">
<title>IntervinienteDetalleComponent&#45;&gt;AppModule</title>
<path fill="none" stroke="black" d="M6072,-85.05C6072,-98.98 6072,-115.8 6072,-115.8 6072,-115.8 5813.81,-115.8 5813.81,-115.8"/>
<polygon fill="black" stroke="black" points="5813.81,-112.3 5803.81,-115.8 5813.81,-119.3 5813.81,-112.3"/>
</g>
<!-- IntervinienteListaComponent -->
<g id="node30" class="node">
<title>IntervinienteListaComponent</title>
<polygon fill="#ffffb3" stroke="black" points="5957.35,-84.8 5776.65,-84.8 5776.65,-48.8 5957.35,-48.8 5957.35,-84.8"/>
<text text-anchor="middle" x="5867" y="-62.6" font-family="Times,serif" font-size="14.00">IntervinienteListaComponent</text>
</g>
<!-- IntervinienteListaComponent&#45;&gt;AppModule -->
<g id="edge30" class="edge">
<title>IntervinienteListaComponent&#45;&gt;AppModule</title>
<path fill="none" stroke="black" d="M5790.2,-84.91C5790.2,-84.91 5790.2,-103.79 5790.2,-103.79"/>
<polygon fill="black" stroke="black" points="5786.7,-103.79 5790.2,-113.79 5793.7,-103.79 5786.7,-103.79"/>
</g>
<!-- IntervinienteRegistroComponent -->
<g id="node31" class="node">
<title>IntervinienteRegistroComponent</title>
<polygon fill="#ffffb3" stroke="black" points="5758.3,-84.8 5557.7,-84.8 5557.7,-48.8 5758.3,-48.8 5758.3,-84.8"/>
<text text-anchor="middle" x="5658" y="-62.6" font-family="Times,serif" font-size="14.00">IntervinienteRegistroComponent</text>
</g>
<!-- IntervinienteRegistroComponent&#45;&gt;AppModule -->
<g id="edge31" class="edge">
<title>IntervinienteRegistroComponent&#45;&gt;AppModule</title>
<path fill="none" stroke="black" d="M5739.16,-84.91C5739.16,-84.91 5739.16,-103.79 5739.16,-103.79"/>
<polygon fill="black" stroke="black" points="5735.66,-103.79 5739.16,-113.79 5742.66,-103.79 5735.66,-103.79"/>
</g>
<!-- LoginComponent -->
<g id="node32" class="node">
<title>LoginComponent</title>
<polygon fill="#ffffb3" stroke="black" points="5539.27,-84.8 5424.73,-84.8 5424.73,-48.8 5539.27,-48.8 5539.27,-84.8"/>
<text text-anchor="middle" x="5482" y="-62.6" font-family="Times,serif" font-size="14.00">LoginComponent</text>
</g>
<!-- LoginComponent&#45;&gt;AppModule -->
<g id="edge32" class="edge">
<title>LoginComponent&#45;&gt;AppModule</title>
<path fill="none" stroke="black" d="M5482,-85.05C5482,-98.98 5482,-115.8 5482,-115.8 5482,-115.8 5710.08,-115.8 5710.08,-115.8"/>
<polygon fill="black" stroke="black" points="5710.08,-119.3 5720.08,-115.8 5710.08,-112.3 5710.08,-119.3"/>
</g>
<!-- LoginNavComponent -->
<g id="node33" class="node">
<title>LoginNavComponent</title>
<polygon fill="#ffffb3" stroke="black" points="5407.1,-84.8 5268.9,-84.8 5268.9,-48.8 5407.1,-48.8 5407.1,-84.8"/>
<text text-anchor="middle" x="5338" y="-62.6" font-family="Times,serif" font-size="14.00">LoginNavComponent</text>
</g>
<!-- LoginNavComponent&#45;&gt;AppModule -->
<g id="edge33" class="edge">
<title>LoginNavComponent&#45;&gt;AppModule</title>
<path fill="none" stroke="black" d="M5338,-84.85C5338,-99.17 5338,-116.8 5338,-116.8 5338,-116.8 5710.18,-116.8 5710.18,-116.8"/>
<polygon fill="black" stroke="black" points="5710.18,-120.3 5720.18,-116.8 5710.18,-113.3 5710.18,-120.3"/>
</g>
<!-- ModificacionTiposComponent -->
<g id="node34" class="node">
<title>ModificacionTiposComponent</title>
<polygon fill="#ffffb3" stroke="black" points="5251.14,-84.8 5062.86,-84.8 5062.86,-48.8 5251.14,-48.8 5251.14,-84.8"/>
<text text-anchor="middle" x="5157" y="-62.6" font-family="Times,serif" font-size="14.00">ModificacionTiposComponent</text>
</g>
<!-- ModificacionTiposComponent&#45;&gt;AppModule -->
<g id="edge34" class="edge">
<title>ModificacionTiposComponent&#45;&gt;AppModule</title>
<path fill="none" stroke="black" d="M5157,-84.92C5157,-99.58 5157,-117.8 5157,-117.8 5157,-117.8 5709.94,-117.8 5709.94,-117.8"/>
<polygon fill="black" stroke="black" points="5709.94,-121.3 5719.94,-117.8 5709.94,-114.3 5709.94,-121.3"/>
</g>
<!-- NavAppComponent -->
<g id="node35" class="node">
<title>NavAppComponent</title>
<polygon fill="#ffffb3" stroke="black" points="5044.27,-84.8 4915.73,-84.8 4915.73,-48.8 5044.27,-48.8 5044.27,-84.8"/>
<text text-anchor="middle" x="4980" y="-62.6" font-family="Times,serif" font-size="14.00">NavAppComponent</text>
</g>
<!-- NavAppComponent&#45;&gt;AppModule -->
<g id="edge35" class="edge">
<title>NavAppComponent&#45;&gt;AppModule</title>
<path fill="none" stroke="black" d="M4980,-84.99C4980,-99.98 4980,-118.8 4980,-118.8 4980,-118.8 5710.23,-118.8 5710.23,-118.8"/>
<polygon fill="black" stroke="black" points="5710.23,-122.3 5720.23,-118.8 5710.23,-115.3 5710.23,-122.3"/>
</g>
<!-- PeriodoListaComponent -->
<g id="node36" class="node">
<title>PeriodoListaComponent</title>
<polygon fill="#ffffb3" stroke="black" points="4897.38,-84.8 4744.62,-84.8 4744.62,-48.8 4897.38,-48.8 4897.38,-84.8"/>
<text text-anchor="middle" x="4821" y="-62.6" font-family="Times,serif" font-size="14.00">PeriodoListaComponent</text>
</g>
<!-- PeriodoListaComponent&#45;&gt;AppModule -->
<g id="edge36" class="edge">
<title>PeriodoListaComponent&#45;&gt;AppModule</title>
<path fill="none" stroke="black" d="M4821,-85.04C4821,-100.37 4821,-119.8 4821,-119.8 4821,-119.8 5710.05,-119.8 5710.05,-119.8"/>
<polygon fill="black" stroke="black" points="5710.05,-123.3 5720.05,-119.8 5710.05,-116.3 5710.05,-123.3"/>
</g>
<!-- PeriodoRegistroComponent -->
<g id="node37" class="node">
<title>PeriodoRegistroComponent</title>
<polygon fill="#ffffb3" stroke="black" points="4726.32,-84.8 4553.68,-84.8 4553.68,-48.8 4726.32,-48.8 4726.32,-84.8"/>
<text text-anchor="middle" x="4640" y="-62.6" font-family="Times,serif" font-size="14.00">PeriodoRegistroComponent</text>
</g>
<!-- PeriodoRegistroComponent&#45;&gt;AppModule -->
<g id="edge37" class="edge">
<title>PeriodoRegistroComponent&#45;&gt;AppModule</title>
<path fill="none" stroke="black" d="M4640,-85.08C4640,-100.75 4640,-120.8 4640,-120.8 4640,-120.8 5710.06,-120.8 5710.06,-120.8"/>
<polygon fill="black" stroke="black" points="5710.06,-124.3 5720.06,-120.8 5710.06,-117.3 5710.06,-124.3"/>
</g>
<!-- PreciosComponent -->
<g id="node38" class="node">
<title>PreciosComponent</title>
<polygon fill="#ffffb3" stroke="black" points="4536.05,-84.8 4413.95,-84.8 4413.95,-48.8 4536.05,-48.8 4536.05,-84.8"/>
<text text-anchor="middle" x="4475" y="-62.6" font-family="Times,serif" font-size="14.00">PreciosComponent</text>
</g>
<!-- PreciosComponent&#45;&gt;AppModule -->
<g id="edge38" class="edge">
<title>PreciosComponent&#45;&gt;AppModule</title>
<path fill="none" stroke="black" d="M4475,-84.83C4475,-101.2 4475,-122.8 4475,-122.8 4475,-122.8 5710.27,-122.8 5710.27,-122.8"/>
<polygon fill="black" stroke="black" points="5710.27,-126.3 5720.27,-122.8 5710.27,-119.3 5710.27,-126.3"/>
</g>
<!-- PubliInicioComponent -->
<g id="node39" class="node">
<title>PubliInicioComponent</title>
<polygon fill="#ffffb3" stroke="black" points="4395.55,-84.8 4252.45,-84.8 4252.45,-48.8 4395.55,-48.8 4395.55,-84.8"/>
<text text-anchor="middle" x="4324" y="-62.6" font-family="Times,serif" font-size="14.00">PubliInicioComponent</text>
</g>
<!-- PubliInicioComponent&#45;&gt;AppModule -->
<g id="edge39" class="edge">
<title>PubliInicioComponent&#45;&gt;AppModule</title>
<path fill="none" stroke="black" d="M4324,-84.84C4324,-101.53 4324,-123.8 4324,-123.8 4324,-123.8 5710.13,-123.8 5710.13,-123.8"/>
<polygon fill="black" stroke="black" points="5710.13,-127.3 5720.13,-123.8 5710.13,-120.3 5710.13,-127.3"/>
</g>
<!-- QuienessomosComponent -->
<g id="node40" class="node">
<title>QuienessomosComponent</title>
<polygon fill="#ffffb3" stroke="black" points="4234.49,-84.8 4071.51,-84.8 4071.51,-48.8 4234.49,-48.8 4234.49,-84.8"/>
<text text-anchor="middle" x="4153" y="-62.6" font-family="Times,serif" font-size="14.00">QuienessomosComponent</text>
</g>
<!-- QuienessomosComponent&#45;&gt;AppModule -->
<g id="edge40" class="edge">
<title>QuienessomosComponent&#45;&gt;AppModule</title>
<path fill="none" stroke="black" d="M4153,-84.83C4153,-101.86 4153,-124.8 4153,-124.8 4153,-124.8 5710.2,-124.8 5710.2,-124.8"/>
<polygon fill="black" stroke="black" points="5710.2,-128.3 5720.2,-124.8 5710.2,-121.3 5710.2,-128.3"/>
</g>
<!-- RolListaComponent -->
<g id="node41" class="node">
<title>RolListaComponent</title>
<polygon fill="#ffffb3" stroke="black" points="4053.55,-84.8 3924.45,-84.8 3924.45,-48.8 4053.55,-48.8 4053.55,-84.8"/>
<text text-anchor="middle" x="3989" y="-62.6" font-family="Times,serif" font-size="14.00">RolListaComponent</text>
</g>
<!-- RolListaComponent&#45;&gt;AppModule -->
<g id="edge41" class="edge">
<title>RolListaComponent&#45;&gt;AppModule</title>
<path fill="none" stroke="black" d="M3989,-84.82C3989,-102.17 3989,-125.8 3989,-125.8 3989,-125.8 5709.92,-125.8 5709.92,-125.8"/>
<polygon fill="black" stroke="black" points="5709.92,-129.3 5719.92,-125.8 5709.92,-122.3 5709.92,-129.3"/>
</g>
<!-- RolRegistroComponent -->
<g id="node42" class="node">
<title>RolRegistroComponent</title>
<polygon fill="#ffffb3" stroke="black" points="3906.5,-84.8 3757.5,-84.8 3757.5,-48.8 3906.5,-48.8 3906.5,-84.8"/>
<text text-anchor="middle" x="3832" y="-62.6" font-family="Times,serif" font-size="14.00">RolRegistroComponent</text>
</g>
<!-- RolRegistroComponent&#45;&gt;AppModule -->
<g id="edge42" class="edge">
<title>RolRegistroComponent&#45;&gt;AppModule</title>
<path fill="none" stroke="black" d="M3832,-84.8C3832,-102.48 3832,-126.8 3832,-126.8 3832,-126.8 5709.89,-126.8 5709.89,-126.8"/>
<polygon fill="black" stroke="black" points="5709.89,-130.3 5719.89,-126.8 5709.89,-123.3 5709.89,-130.3"/>
</g>
<!-- SliderComponent -->
<g id="node43" class="node">
<title>SliderComponent</title>
<polygon fill="#ffffb3" stroke="black" points="3739.27,-84.8 3624.73,-84.8 3624.73,-48.8 3739.27,-48.8 3739.27,-84.8"/>
<text text-anchor="middle" x="3682" y="-62.6" font-family="Times,serif" font-size="14.00">SliderComponent</text>
</g>
<!-- SliderComponent&#45;&gt;AppModule -->
<g id="edge43" class="edge">
<title>SliderComponent&#45;&gt;AppModule</title>
<path fill="none" stroke="black" d="M3682,-85.1C3682,-103.07 3682,-127.8 3682,-127.8 3682,-127.8 5709.98,-127.8 5709.98,-127.8"/>
<polygon fill="black" stroke="black" points="5709.98,-131.3 5719.98,-127.8 5709.98,-124.3 5709.98,-131.3"/>
</g>
<!-- TipoCategoriaListaComponent -->
<g id="node44" class="node">
<title>TipoCategoriaListaComponent</title>
<polygon fill="#ffffb3" stroke="black" points="3607.19,-84.8 3416.81,-84.8 3416.81,-48.8 3607.19,-48.8 3607.19,-84.8"/>
<text text-anchor="middle" x="3512" y="-62.6" font-family="Times,serif" font-size="14.00">TipoCategoriaListaComponent</text>
</g>
<!-- TipoCategoriaListaComponent&#45;&gt;AppModule -->
<g id="edge44" class="edge">
<title>TipoCategoriaListaComponent&#45;&gt;AppModule</title>
<path fill="none" stroke="black" d="M3512,-85.02C3512,-103.63 3512,-129.8 3512,-129.8 3512,-129.8 5710.05,-129.8 5710.05,-129.8"/>
<polygon fill="black" stroke="black" points="5710.05,-133.3 5720.05,-129.8 5710.05,-126.3 5710.05,-133.3"/>
</g>
<!-- TipoCategoriaRegistroComponent -->
<g id="node45" class="node">
<title>TipoCategoriaRegistroComponent</title>
<polygon fill="#ffffb3" stroke="black" points="3398.64,-84.8 3189.36,-84.8 3189.36,-48.8 3398.64,-48.8 3398.64,-84.8"/>
<text text-anchor="middle" x="3294" y="-62.6" font-family="Times,serif" font-size="14.00">TipoCategoriaRegistroComponent</text>
</g>
<!-- TipoCategoriaRegistroComponent&#45;&gt;AppModule -->
<g id="edge45" class="edge">
<title>TipoCategoriaRegistroComponent&#45;&gt;AppModule</title>
<path fill="none" stroke="black" d="M3294,-84.97C3294,-103.89 3294,-130.8 3294,-130.8 3294,-130.8 5710.2,-130.8 5710.2,-130.8"/>
<polygon fill="black" stroke="black" points="5710.2,-134.3 5720.2,-130.8 5710.2,-127.3 5710.2,-134.3"/>
</g>
<!-- TipoCoceptoListaComponent -->
<g id="node46" class="node">
<title>TipoCoceptoListaComponent</title>
<polygon fill="#ffffb3" stroke="black" points="3171.42,-84.8 2988.58,-84.8 2988.58,-48.8 3171.42,-48.8 3171.42,-84.8"/>
<text text-anchor="middle" x="3080" y="-62.6" font-family="Times,serif" font-size="14.00">TipoCoceptoListaComponent</text>
</g>
<!-- TipoCoceptoListaComponent&#45;&gt;AppModule -->
<g id="edge46" class="edge">
<title>TipoCoceptoListaComponent&#45;&gt;AppModule</title>
<path fill="none" stroke="black" d="M3080,-84.91C3080,-104.14 3080,-131.8 3080,-131.8 3080,-131.8 5710.14,-131.8 5710.14,-131.8"/>
<polygon fill="black" stroke="black" points="5710.14,-135.3 5720.14,-131.8 5710.14,-128.3 5710.14,-135.3"/>
</g>
<!-- TipoConceptoRegistroComponent -->
<g id="node47" class="node">
<title>TipoConceptoRegistroComponent</title>
<polygon fill="#ffffb3" stroke="black" points="2970.37,-84.8 2761.63,-84.8 2761.63,-48.8 2970.37,-48.8 2970.37,-84.8"/>
<text text-anchor="middle" x="2866" y="-62.6" font-family="Times,serif" font-size="14.00">TipoConceptoRegistroComponent</text>
</g>
<!-- TipoConceptoRegistroComponent&#45;&gt;AppModule -->
<g id="edge47" class="edge">
<title>TipoConceptoRegistroComponent&#45;&gt;AppModule</title>
<path fill="none" stroke="black" d="M2866,-84.83C2866,-104.38 2866,-132.8 2866,-132.8 2866,-132.8 5710.23,-132.8 5710.23,-132.8"/>
<polygon fill="black" stroke="black" points="5710.23,-136.3 5720.23,-132.8 5710.23,-129.3 5710.23,-136.3"/>
</g>
<!-- TipoContratoListaComponent -->
<g id="node48" class="node">
<title>TipoContratoListaComponent</title>
<polygon fill="#ffffb3" stroke="black" points="2743.26,-84.8 2558.74,-84.8 2558.74,-48.8 2743.26,-48.8 2743.26,-84.8"/>
<text text-anchor="middle" x="2651" y="-62.6" font-family="Times,serif" font-size="14.00">TipoContratoListaComponent</text>
</g>
<!-- TipoContratoListaComponent&#45;&gt;AppModule -->
<g id="edge48" class="edge">
<title>TipoContratoListaComponent&#45;&gt;AppModule</title>
<path fill="none" stroke="black" d="M2651,-85.11C2651,-104.95 2651,-133.8 2651,-133.8 2651,-133.8 5710.08,-133.8 5710.08,-133.8"/>
<polygon fill="black" stroke="black" points="5710.08,-137.3 5720.08,-133.8 5710.08,-130.3 5710.08,-137.3"/>
</g>
<!-- TipoContratoRegistroComponent -->
<g id="node49" class="node">
<title>TipoContratoRegistroComponent</title>
<polygon fill="#ffffb3" stroke="black" points="2541.21,-84.8 2336.79,-84.8 2336.79,-48.8 2541.21,-48.8 2541.21,-84.8"/>
<text text-anchor="middle" x="2439" y="-62.6" font-family="Times,serif" font-size="14.00">TipoContratoRegistroComponent</text>
</g>
<!-- TipoContratoRegistroComponent&#45;&gt;AppModule -->
<g id="edge49" class="edge">
<title>TipoContratoRegistroComponent&#45;&gt;AppModule</title>
<path fill="none" stroke="black" d="M2439,-85.02C2439,-105.17 2439,-134.8 2439,-134.8 2439,-134.8 5710.29,-134.8 5710.29,-134.8"/>
<polygon fill="black" stroke="black" points="5710.29,-138.3 5720.29,-134.8 5710.29,-131.3 5710.29,-138.3"/>
</g>
<!-- TipoInmuebleListaComponent -->
<g id="node50" class="node">
<title>TipoInmuebleListaComponent</title>
<polygon fill="#ffffb3" stroke="black" points="2319.14,-84.8 2130.86,-84.8 2130.86,-48.8 2319.14,-48.8 2319.14,-84.8"/>
<text text-anchor="middle" x="2225" y="-62.6" font-family="Times,serif" font-size="14.00">TipoInmuebleListaComponent</text>
</g>
<!-- TipoInmuebleListaComponent&#45;&gt;AppModule -->
<g id="edge50" class="edge">
<title>TipoInmuebleListaComponent&#45;&gt;AppModule</title>
<path fill="none" stroke="black" d="M2225,-84.83C2225,-105.57 2225,-136.8 2225,-136.8 2225,-136.8 5710.13,-136.8 5710.13,-136.8"/>
<polygon fill="black" stroke="black" points="5710.13,-140.3 5720.13,-136.8 5710.13,-133.3 5710.13,-140.3"/>
</g>
<!-- TipoInmuebleRegistroComponent -->
<g id="node51" class="node">
<title>TipoInmuebleRegistroComponent</title>
<polygon fill="#ffffb3" stroke="black" points="2113.08,-84.8 1904.92,-84.8 1904.92,-48.8 2113.08,-48.8 2113.08,-84.8"/>
<text text-anchor="middle" x="2009" y="-62.6" font-family="Times,serif" font-size="14.00">TipoInmuebleRegistroComponent</text>
</g>
<!-- TipoInmuebleRegistroComponent&#45;&gt;AppModule -->
<g id="edge51" class="edge">
<title>TipoInmuebleRegistroComponent&#45;&gt;AppModule</title>
<path fill="none" stroke="black" d="M2009,-85.08C2009,-106.12 2009,-137.8 2009,-137.8 2009,-137.8 5710.17,-137.8 5710.17,-137.8"/>
<polygon fill="black" stroke="black" points="5710.17,-141.3 5720.17,-137.8 5710.17,-134.3 5710.17,-141.3"/>
</g>
<!-- TipoIntervinienteListaComponent -->
<g id="node52" class="node">
<title>TipoIntervinienteListaComponent</title>
<polygon fill="#ffffb3" stroke="black" points="1886.79,-84.8 1679.21,-84.8 1679.21,-48.8 1886.79,-48.8 1886.79,-84.8"/>
<text text-anchor="middle" x="1783" y="-62.6" font-family="Times,serif" font-size="14.00">TipoIntervinienteListaComponent</text>
</g>
<!-- TipoIntervinienteListaComponent&#45;&gt;AppModule -->
<g id="edge52" class="edge">
<title>TipoIntervinienteListaComponent&#45;&gt;AppModule</title>
<path fill="none" stroke="black" d="M1783,-84.97C1783,-106.3 1783,-138.8 1783,-138.8 1783,-138.8 5710.34,-138.8 5710.34,-138.8"/>
<polygon fill="black" stroke="black" points="5710.34,-142.3 5720.34,-138.8 5710.34,-135.3 5710.34,-142.3"/>
</g>
<!-- TipoIntervinienteRegistroComponent -->
<g id="node53" class="node">
<title>TipoIntervinienteRegistroComponent</title>
<polygon fill="#ffffb3" stroke="black" points="1661.24,-84.8 1434.76,-84.8 1434.76,-48.8 1661.24,-48.8 1661.24,-84.8"/>
<text text-anchor="middle" x="1548" y="-62.6" font-family="Times,serif" font-size="14.00">TipoIntervinienteRegistroComponent</text>
</g>
<!-- TipoIntervinienteRegistroComponent&#45;&gt;AppModule -->
<g id="edge53" class="edge">
<title>TipoIntervinienteRegistroComponent&#45;&gt;AppModule</title>
<path fill="none" stroke="black" d="M1548,-84.84C1548,-106.46 1548,-139.8 1548,-139.8 1548,-139.8 5710.29,-139.8 5710.29,-139.8"/>
<polygon fill="black" stroke="black" points="5710.29,-143.3 5720.29,-139.8 5710.29,-136.3 5710.29,-143.3"/>
</g>
<!-- TipoPagoListaComponent -->
<g id="node54" class="node">
<title>TipoPagoListaComponent</title>
<polygon fill="#ffffb3" stroke="black" points="1416.77,-84.8 1253.23,-84.8 1253.23,-48.8 1416.77,-48.8 1416.77,-84.8"/>
<text text-anchor="middle" x="1335" y="-62.6" font-family="Times,serif" font-size="14.00">TipoPagoListaComponent</text>
</g>
<!-- TipoPagoListaComponent&#45;&gt;AppModule -->
<g id="edge54" class="edge">
<title>TipoPagoListaComponent&#45;&gt;AppModule</title>
<path fill="none" stroke="black" d="M1335,-85.09C1335,-107.01 1335,-140.8 1335,-140.8 1335,-140.8 5710.31,-140.8 5710.31,-140.8"/>
<polygon fill="black" stroke="black" points="5710.31,-144.3 5720.31,-140.8 5710.31,-137.3 5710.31,-144.3"/>
</g>
<!-- TipoPagoRegistroComponent -->
<g id="node55" class="node">
<title>TipoPagoRegistroComponent</title>
<polygon fill="#ffffb3" stroke="black" points="1235.71,-84.8 1052.29,-84.8 1052.29,-48.8 1235.71,-48.8 1235.71,-84.8"/>
<text text-anchor="middle" x="1144" y="-62.6" font-family="Times,serif" font-size="14.00">TipoPagoRegistroComponent</text>
</g>
<!-- TipoPagoRegistroComponent&#45;&gt;AppModule -->
<g id="edge55" class="edge">
<title>TipoPagoRegistroComponent&#45;&gt;AppModule</title>
<path fill="none" stroke="black" d="M1144,-84.96C1144,-107.15 1144,-141.8 1144,-141.8 1144,-141.8 5710.31,-141.8 5710.31,-141.8"/>
<polygon fill="black" stroke="black" points="5710.31,-145.3 5720.31,-141.8 5710.31,-138.3 5710.31,-145.3"/>
</g>
<!-- TiposAyudaComponent -->
<g id="node56" class="node">
<title>TiposAyudaComponent</title>
<polygon fill="#ffffb3" stroke="black" points="1034.05,-84.8 883.95,-84.8 883.95,-48.8 1034.05,-48.8 1034.05,-84.8"/>
<text text-anchor="middle" x="959" y="-62.6" font-family="Times,serif" font-size="14.00">TiposAyudaComponent</text>
</g>
<!-- TiposAyudaComponent&#45;&gt;AppModule -->
<g id="edge56" class="edge">
<title>TiposAyudaComponent&#45;&gt;AppModule</title>
<path fill="none" stroke="black" d="M959,-85.05C959,-107.82 959,-143.8 959,-143.8 959,-143.8 5710.11,-143.8 5710.11,-143.8"/>
<polygon fill="black" stroke="black" points="5710.11,-147.3 5720.11,-143.8 5710.11,-140.3 5710.11,-147.3"/>
</g>
<!-- TiposComponent -->
<g id="node57" class="node">
<title>TiposComponent</title>
<polygon fill="#ffffb3" stroke="black" points="865.72,-84.8 752.28,-84.8 752.28,-48.8 865.72,-48.8 865.72,-84.8"/>
<text text-anchor="middle" x="809" y="-62.6" font-family="Times,serif" font-size="14.00">TiposComponent</text>
</g>
<!-- TiposComponent&#45;&gt;AppModule -->
<g id="edge57" class="edge">
<title>TiposComponent&#45;&gt;AppModule</title>
<path fill="none" stroke="black" d="M809,-84.89C809,-107.93 809,-144.8 809,-144.8 809,-144.8 5710.3,-144.8 5710.3,-144.8"/>
<polygon fill="black" stroke="black" points="5710.3,-148.3 5720.3,-144.8 5710.3,-141.3 5710.3,-148.3"/>
</g>
<!-- UsuarioAyudaComponent -->
<g id="node58" class="node">
<title>UsuarioAyudaComponent</title>
<polygon fill="#ffffb3" stroke="black" points="734.48,-84.8 571.52,-84.8 571.52,-48.8 734.48,-48.8 734.48,-84.8"/>
<text text-anchor="middle" x="653" y="-62.6" font-family="Times,serif" font-size="14.00">UsuarioAyudaComponent</text>
</g>
<!-- UsuarioAyudaComponent&#45;&gt;AppModule -->
<g id="edge58" class="edge">
<title>UsuarioAyudaComponent&#45;&gt;AppModule</title>
<path fill="none" stroke="black" d="M653,-85.12C653,-108.46 653,-145.8 653,-145.8 653,-145.8 5710.12,-145.8 5710.12,-145.8"/>
<polygon fill="black" stroke="black" points="5710.12,-149.3 5720.12,-145.8 5710.12,-142.3 5710.12,-149.3"/>
</g>
<!-- UsuarioDetalleComponent -->
<g id="node59" class="node">
<title>UsuarioDetalleComponent</title>
<polygon fill="#ffffb3" stroke="black" points="553.08,-84.8 386.92,-84.8 386.92,-48.8 553.08,-48.8 553.08,-84.8"/>
<text text-anchor="middle" x="470" y="-62.6" font-family="Times,serif" font-size="14.00">UsuarioDetalleComponent</text>
</g>
<!-- UsuarioDetalleComponent&#45;&gt;AppModule -->
<g id="edge59" class="edge">
<title>UsuarioDetalleComponent&#45;&gt;AppModule</title>
<path fill="none" stroke="black" d="M470,-84.95C470,-108.56 470,-146.8 470,-146.8 470,-146.8 5710.17,-146.8 5710.17,-146.8"/>
<polygon fill="black" stroke="black" points="5710.17,-150.3 5720.17,-146.8 5710.17,-143.3 5710.17,-150.3"/>
</g>
<!-- UsuarioListaComponent -->
<g id="node60" class="node">
<title>UsuarioListaComponent</title>
<polygon fill="#ffffb3" stroke="black" points="368.65,-84.8 215.35,-84.8 215.35,-48.8 368.65,-48.8 368.65,-84.8"/>
<text text-anchor="middle" x="292" y="-62.6" font-family="Times,serif" font-size="14.00">UsuarioListaComponent</text>
</g>
<!-- UsuarioListaComponent&#45;&gt;AppModule -->
<g id="edge60" class="edge">
<title>UsuarioListaComponent&#45;&gt;AppModule</title>
<path fill="none" stroke="black" d="M292,-85.18C292,-109.08 292,-147.8 292,-147.8 292,-147.8 5709.95,-147.8 5709.95,-147.8"/>
<polygon fill="black" stroke="black" points="5709.95,-151.3 5719.95,-147.8 5709.95,-144.3 5709.95,-151.3"/>
</g>
<!-- UsuarioRegistroComponent -->
<g id="node61" class="node">
<title>UsuarioRegistroComponent</title>
<polygon fill="#ffffb3" stroke="black" points="197.6,-84.8 24.4,-84.8 24.4,-48.8 197.6,-48.8 197.6,-84.8"/>
<text text-anchor="middle" x="111" y="-62.6" font-family="Times,serif" font-size="14.00">UsuarioRegistroComponent</text>
</g>
<!-- UsuarioRegistroComponent&#45;&gt;AppModule -->
<g id="edge61" class="edge">
<title>UsuarioRegistroComponent&#45;&gt;AppModule</title>
<path fill="none" stroke="black" d="M111,-85C111,-109.16 111,-148.8 111,-148.8 111,-148.8 5710.16,-148.8 5710.16,-148.8"/>
<polygon fill="black" stroke="black" points="5710.16,-152.3 5720.16,-148.8 5710.16,-145.3 5710.16,-152.3"/>
</g>
<!-- AppComponent  -->
<g id="node64" class="node">
<title>AppComponent </title>
<polygon fill="#80b1d3" stroke="black" points="5816.44,-214.8 5707.56,-214.8 5707.56,-178.8 5816.44,-178.8 5816.44,-214.8"/>
<text text-anchor="middle" x="5762" y="-192.6" font-family="Times,serif" font-size="14.00">AppComponent </text>
</g>
<!-- AppModule&#45;&gt;AppComponent  -->
<g id="edge63" class="edge">
<title>AppModule&#45;&gt;AppComponent </title>
<path fill="none" stroke="black" stroke-dasharray="1,5" d="M5762,-149.91C5762,-149.91 5762,-168.79 5762,-168.79"/>
<polygon fill="black" stroke="black" points="5758.5,-168.79 5762,-178.79 5765.5,-168.79 5758.5,-168.79"/>
</g>
<!-- AppRoutingModule -->
<g id="node63" class="node">
<title>AppRoutingModule</title>
<polygon fill="#8dd3c7" stroke="black" points="11443.28,-84.8 11440.28,-88.8 11419.28,-88.8 11416.28,-84.8 11314.72,-84.8 11314.72,-48.8 11443.28,-48.8 11443.28,-84.8"/>
<text text-anchor="middle" x="11379" y="-62.6" font-family="Times,serif" font-size="14.00">AppRoutingModule</text>
</g>
<!-- AppRoutingModule&#45;&gt;AppModule -->
<g id="edge62" class="edge">
<title>AppRoutingModule&#45;&gt;AppModule</title>
<path fill="none" stroke="black" d="M11379,-85C11379,-109.16 11379,-148.8 11379,-148.8 11379,-148.8 5813.98,-148.8 5813.98,-148.8"/>
<polygon fill="black" stroke="black" points="5813.98,-145.3 5803.98,-148.8 5813.98,-152.3 5813.98,-145.3"/>
</g>
</g>
</svg>
