<?xml version="1.0" encoding="UTF-8" standalone="no"?>
<!DOCTYPE svg PUBLIC "-//W3C//DTD SVG 1.1//EN"
 "http://www.w3.org/Graphics/SVG/1.1/DTD/svg11.dtd">
<!-- Generated by graphviz version 3.0.0 (20220226.1711)
 -->
<!-- Title: dependencies Pages: 1 -->
<svg width="11475pt" height="247pt"
 viewBox="0.00 0.00 11475.00 246.80" xmlns="http://www.w3.org/2000/svg" xmlns:xlink="http://www.w3.org/1999/xlink">
<g id="graph0" class="graph" transform="scale(1 1) rotate(0) translate(4 242.8)">
<title>dependencies</title>
<polygon fill="white" stroke="transparent" points="-4,4 -4,-242.8 11471,-242.8 11471,4 -4,4"/>
<text text-anchor="middle" x="5733.5" y="-8.2" font-family="sans-serif" font-size="14.00">dependencies</text>
<g id="clust1" class="cluster">
<title>cluster_AppModule</title>
<polygon fill="none" stroke="black" stroke-dasharray="1,5" points="8,-32.8 8,-230.8 11459,-230.8 11459,-32.8 8,-32.8"/>
</g>
<g id="clust2" class="cluster">
<title>cluster_AppModule_declarations</title>
<polygon fill="none" stroke="black" points="168,-40.8 168,-92.8 11451,-92.8 11451,-40.8 168,-40.8"/>
</g>
<g id="clust64" class="cluster">
<title>cluster_AppModule_imports</title>
<polygon fill="none" stroke="black" points="16,-40.8 16,-92.8 160,-92.8 160,-40.8 16,-40.8"/>
</g>
<g id="clust66" class="cluster">
<title>cluster_AppModule_bootstrap</title>
<polygon fill="none" stroke="black" points="5660,-170.8 5660,-222.8 5784,-222.8 5784,-170.8 5660,-170.8"/>
</g>
<!-- AdministradorRegistroComponent -->
<g id="node1" class="node">
<title>AdministradorRegistroComponent</title>
<polygon fill="#ffffb3" stroke="black" points="11443.43,-84.8 11232.57,-84.8 11232.57,-48.8 11443.43,-48.8 11443.43,-84.8"/>
<text text-anchor="middle" x="11338" y="-62.6" font-family="Times,serif" font-size="14.00">AdministradorRegistroComponent</text>
</g>
<!-- AppModule -->
<g id="node62" class="node">
<title>AppModule</title>
<polygon fill="#8dd3c7" stroke="black" points="5763.66,-149.8 5760.66,-153.8 5739.66,-153.8 5736.66,-149.8 5680.34,-149.8 5680.34,-113.8 5763.66,-113.8 5763.66,-149.8"/>
<text text-anchor="middle" x="5722" y="-127.6" font-family="Times,serif" font-size="14.00">AppModule</text>
</g>
<!-- AdministradorRegistroComponent&#45;&gt;AppModule -->
<g id="edge1" class="edge">
<title>AdministradorRegistroComponent&#45;&gt;AppModule</title>
<path fill="none" stroke="black" d="M11338,-85C11338,-109.16 11338,-148.8 11338,-148.8 11338,-148.8 5773.98,-148.8 5773.98,-148.8"/>
<polygon fill="black" stroke="black" points="5773.98,-145.3 5763.98,-148.8 5773.98,-152.3 5773.98,-145.3"/>
</g>
<!-- AppComponent -->
<g id="node2" class="node">
<title>AppComponent</title>
<polygon fill="#ffffb3" stroke="black" points="11214.94,-84.8 11109.06,-84.8 11109.06,-48.8 11214.94,-48.8 11214.94,-84.8"/>
<text text-anchor="middle" x="11162" y="-62.6" font-family="Times,serif" font-size="14.00">AppComponent</text>
</g>
<!-- AppComponent&#45;&gt;AppModule -->
<g id="edge2" class="edge">
<title>AppComponent&#45;&gt;AppModule</title>
<path fill="none" stroke="black" d="M11162,-85.18C11162,-109.08 11162,-147.8 11162,-147.8 11162,-147.8 5773.82,-147.8 5773.82,-147.8"/>
<polygon fill="black" stroke="black" points="5773.82,-144.3 5763.82,-147.8 5773.82,-151.3 5773.82,-144.3"/>
</g>
<!-- BalanceAyudaComponent -->
<g id="node3" class="node">
<title>BalanceAyudaComponent</title>
<polygon fill="#ffffb3" stroke="black" points="11090.74,-84.8 10927.26,-84.8 10927.26,-48.8 11090.74,-48.8 11090.74,-84.8"/>
<text text-anchor="middle" x="11009" y="-62.6" font-family="Times,serif" font-size="14.00">BalanceAyudaComponent</text>
</g>
<!-- BalanceAyudaComponent&#45;&gt;AppModule -->
<g id="edge3" class="edge">
<title>BalanceAyudaComponent&#45;&gt;AppModule</title>
<path fill="none" stroke="black" d="M11009,-84.95C11009,-108.56 11009,-146.8 11009,-146.8 11009,-146.8 5773.79,-146.8 5773.79,-146.8"/>
<polygon fill="black" stroke="black" points="5773.79,-143.3 5763.79,-146.8 5773.79,-150.3 5773.79,-143.3"/>
</g>
<!-- BalanceListaComponent -->
<g id="node4" class="node">
<title>BalanceListaComponent</title>
<polygon fill="#ffffb3" stroke="black" points="10909.41,-84.8 10754.59,-84.8 10754.59,-48.8 10909.41,-48.8 10909.41,-84.8"/>
<text text-anchor="middle" x="10832" y="-62.6" font-family="Times,serif" font-size="14.00">BalanceListaComponent</text>
</g>
<!-- BalanceListaComponent&#45;&gt;AppModule -->
<g id="edge4" class="edge">
<title>BalanceListaComponent&#45;&gt;AppModule</title>
<path fill="none" stroke="black" d="M10832,-85.12C10832,-108.46 10832,-145.8 10832,-145.8 10832,-145.8 5773.88,-145.8 5773.88,-145.8"/>
<polygon fill="black" stroke="black" points="5773.88,-142.3 5763.88,-145.8 5773.88,-149.3 5773.88,-142.3"/>
</g>
<!-- BalanceXAnioComponent -->
<g id="node5" class="node">
<title>BalanceXAnioComponent</title>
<polygon fill="#ffffb3" stroke="black" points="10737.03,-84.8 10572.97,-84.8 10572.97,-48.8 10737.03,-48.8 10737.03,-84.8"/>
<text text-anchor="middle" x="10655" y="-62.6" font-family="Times,serif" font-size="14.00">BalanceXAnioComponent</text>
</g>
<!-- BalanceXAnioComponent&#45;&gt;AppModule -->
<g id="edge5" class="edge">
<title>BalanceXAnioComponent&#45;&gt;AppModule</title>
<path fill="none" stroke="black" d="M10655,-84.89C10655,-107.93 10655,-144.8 10655,-144.8 10655,-144.8 5773.9,-144.8 5773.9,-144.8"/>
<polygon fill="black" stroke="black" points="5773.9,-141.3 5763.9,-144.8 5773.9,-148.3 5773.9,-141.3"/>
</g>
<!-- BalanceXInmuebleComponent -->
<g id="node6" class="node">
<title>BalanceXInmuebleComponent</title>
<polygon fill="#ffffb3" stroke="black" points="10554.89,-84.8 10365.11,-84.8 10365.11,-48.8 10554.89,-48.8 10554.89,-84.8"/>
<text text-anchor="middle" x="10460" y="-62.6" font-family="Times,serif" font-size="14.00">BalanceXInmuebleComponent</text>
</g>
<!-- BalanceXInmuebleComponent&#45;&gt;AppModule -->
<g id="edge6" class="edge">
<title>BalanceXInmuebleComponent&#45;&gt;AppModule</title>
<path fill="none" stroke="black" d="M10460,-85.05C10460,-107.82 10460,-143.8 10460,-143.8 10460,-143.8 5773.68,-143.8 5773.68,-143.8"/>
<polygon fill="black" stroke="black" points="5773.68,-140.3 5763.68,-143.8 5773.68,-147.3 5773.68,-140.3"/>
</g>
<!-- BalanceXMesComponent -->
<g id="node7" class="node">
<title>BalanceXMesComponent</title>
<polygon fill="#ffffb3" stroke="black" points="10347.14,-84.8 10186.86,-84.8 10186.86,-48.8 10347.14,-48.8 10347.14,-84.8"/>
<text text-anchor="middle" x="10267" y="-62.6" font-family="Times,serif" font-size="14.00">BalanceXMesComponent</text>
</g>
<!-- BalanceXMesComponent&#45;&gt;AppModule -->
<g id="edge7" class="edge">
<title>BalanceXMesComponent&#45;&gt;AppModule</title>
<path fill="none" stroke="black" d="M10267,-84.96C10267,-107.15 10267,-141.8 10267,-141.8 10267,-141.8 5773.74,-141.8 5773.74,-141.8"/>
<polygon fill="black" stroke="black" points="5773.74,-138.3 5763.74,-141.8 5773.74,-145.3 5773.74,-138.3"/>
</g>
<!-- ClienteDetalleComponent -->
<g id="node8" class="node">
<title>ClienteDetalleComponent</title>
<polygon fill="#ffffb3" stroke="black" points="10169.19,-84.8 10006.81,-84.8 10006.81,-48.8 10169.19,-48.8 10169.19,-84.8"/>
<text text-anchor="middle" x="10088" y="-62.6" font-family="Times,serif" font-size="14.00">ClienteDetalleComponent</text>
</g>
<!-- ClienteDetalleComponent&#45;&gt;AppModule -->
<g id="edge8" class="edge">
<title>ClienteDetalleComponent&#45;&gt;AppModule</title>
<path fill="none" stroke="black" d="M10088,-85.09C10088,-107.01 10088,-140.8 10088,-140.8 10088,-140.8 5773.81,-140.8 5773.81,-140.8"/>
<polygon fill="black" stroke="black" points="5773.81,-137.3 5763.81,-140.8 5773.81,-144.3 5773.81,-137.3"/>
</g>
<!-- ClienteListaComponent -->
<g id="node9" class="node">
<title>ClienteListaComponent</title>
<polygon fill="#ffffb3" stroke="black" points="9988.76,-84.8 9839.24,-84.8 9839.24,-48.8 9988.76,-48.8 9988.76,-84.8"/>
<text text-anchor="middle" x="9914" y="-62.6" font-family="Times,serif" font-size="14.00">ClienteListaComponent</text>
</g>
<!-- ClienteListaComponent&#45;&gt;AppModule -->
<g id="edge9" class="edge">
<title>ClienteListaComponent&#45;&gt;AppModule</title>
<path fill="none" stroke="black" d="M9914,-84.84C9914,-106.46 9914,-139.8 9914,-139.8 9914,-139.8 5773.83,-139.8 5773.83,-139.8"/>
<polygon fill="black" stroke="black" points="5773.83,-136.3 5763.83,-139.8 5773.83,-143.3 5773.83,-136.3"/>
</g>
<!-- ClienteRegistroComponent -->
<g id="node10" class="node">
<title>ClienteRegistroComponent</title>
<polygon fill="#ffffb3" stroke="black" points="9821.71,-84.8 9652.29,-84.8 9652.29,-48.8 9821.71,-48.8 9821.71,-84.8"/>
<text text-anchor="middle" x="9737" y="-62.6" font-family="Times,serif" font-size="14.00">ClienteRegistroComponent</text>
</g>
<!-- ClienteRegistroComponent&#45;&gt;AppModule -->
<g id="edge10" class="edge">
<title>ClienteRegistroComponent&#45;&gt;AppModule</title>
<path fill="none" stroke="black" d="M9737,-84.97C9737,-106.3 9737,-138.8 9737,-138.8 9737,-138.8 5773.71,-138.8 5773.71,-138.8"/>
<polygon fill="black" stroke="black" points="5773.71,-135.3 5763.71,-138.8 5773.71,-142.3 5773.71,-135.3"/>
</g>
<!-- ComoFuncionaComponent -->
<g id="node11" class="node">
<title>ComoFuncionaComponent</title>
<polygon fill="#ffffb3" stroke="black" points="9634.66,-84.8 9467.34,-84.8 9467.34,-48.8 9634.66,-48.8 9634.66,-84.8"/>
<text text-anchor="middle" x="9551" y="-62.6" font-family="Times,serif" font-size="14.00">ComoFuncionaComponent</text>
</g>
<!-- ComoFuncionaComponent&#45;&gt;AppModule -->
<g id="edge11" class="edge">
<title>ComoFuncionaComponent&#45;&gt;AppModule</title>
<path fill="none" stroke="black" d="M9551,-85.08C9551,-106.12 9551,-137.8 9551,-137.8 9551,-137.8 5773.7,-137.8 5773.7,-137.8"/>
<polygon fill="black" stroke="black" points="5773.7,-134.3 5763.7,-137.8 5773.7,-141.3 5773.7,-134.3"/>
</g>
<!-- ContactoComponent -->
<g id="node12" class="node">
<title>ContactoComponent</title>
<polygon fill="#ffffb3" stroke="black" points="9448.88,-84.8 9317.12,-84.8 9317.12,-48.8 9448.88,-48.8 9448.88,-84.8"/>
<text text-anchor="middle" x="9383" y="-62.6" font-family="Times,serif" font-size="14.00">ContactoComponent</text>
</g>
<!-- ContactoComponent&#45;&gt;AppModule -->
<g id="edge12" class="edge">
<title>ContactoComponent&#45;&gt;AppModule</title>
<path fill="none" stroke="black" d="M9383,-84.83C9383,-105.57 9383,-136.8 9383,-136.8 9383,-136.8 5773.75,-136.8 5773.75,-136.8"/>
<polygon fill="black" stroke="black" points="5773.75,-133.3 5763.75,-136.8 5773.75,-140.3 5773.75,-133.3"/>
</g>
<!-- ContratoAyudaComponent -->
<g id="node13" class="node">
<title>ContratoAyudaComponent</title>
<polygon fill="#ffffb3" stroke="black" points="9298.65,-84.8 9131.35,-84.8 9131.35,-48.8 9298.65,-48.8 9298.65,-84.8"/>
<text text-anchor="middle" x="9215" y="-62.6" font-family="Times,serif" font-size="14.00">ContratoAyudaComponent</text>
</g>
<!-- ContratoAyudaComponent&#45;&gt;AppModule -->
<g id="edge13" class="edge">
<title>ContratoAyudaComponent&#45;&gt;AppModule</title>
<path fill="none" stroke="black" d="M9215,-85.02C9215,-105.17 9215,-134.8 9215,-134.8 9215,-134.8 5773.97,-134.8 5773.97,-134.8"/>
<polygon fill="black" stroke="black" points="5773.97,-131.3 5763.97,-134.8 5773.97,-138.3 5773.97,-131.3"/>
</g>
<!-- ContratoDetalleComponent -->
<g id="node14" class="node">
<title>ContratoDetalleComponent</title>
<polygon fill="#ffffb3" stroke="black" points="9113.25,-84.8 8942.75,-84.8 8942.75,-48.8 9113.25,-48.8 9113.25,-84.8"/>
<text text-anchor="middle" x="9028" y="-62.6" font-family="Times,serif" font-size="14.00">ContratoDetalleComponent</text>
</g>
<!-- ContratoDetalleComponent&#45;&gt;AppModule -->
<g id="edge14" class="edge">
<title>ContratoDetalleComponent&#45;&gt;AppModule</title>
<path fill="none" stroke="black" d="M9028,-85.11C9028,-104.95 9028,-133.8 9028,-133.8 9028,-133.8 5773.8,-133.8 5773.8,-133.8"/>
<polygon fill="black" stroke="black" points="5773.8,-130.3 5763.8,-133.8 5773.8,-137.3 5773.8,-130.3"/>
</g>
<!-- ContratoListaComponent -->
<g id="node15" class="node">
<title>ContratoListaComponent</title>
<polygon fill="#ffffb3" stroke="black" points="8924.32,-84.8 8765.68,-84.8 8765.68,-48.8 8924.32,-48.8 8924.32,-84.8"/>
<text text-anchor="middle" x="8845" y="-62.6" font-family="Times,serif" font-size="14.00">ContratoListaComponent</text>
</g>
<!-- ContratoListaComponent&#45;&gt;AppModule -->
<g id="edge15" class="edge">
<title>ContratoListaComponent&#45;&gt;AppModule</title>
<path fill="none" stroke="black" d="M8845,-84.83C8845,-104.38 8845,-132.8 8845,-132.8 8845,-132.8 5773.79,-132.8 5773.79,-132.8"/>
<polygon fill="black" stroke="black" points="5773.79,-129.3 5763.79,-132.8 5773.79,-136.3 5773.79,-129.3"/>
</g>
<!-- ContratoRegistroComponent -->
<g id="node16" class="node">
<title>ContratoRegistroComponent</title>
<polygon fill="#ffffb3" stroke="black" points="8747.77,-84.8 8570.23,-84.8 8570.23,-48.8 8747.77,-48.8 8747.77,-84.8"/>
<text text-anchor="middle" x="8659" y="-62.6" font-family="Times,serif" font-size="14.00">ContratoRegistroComponent</text>
</g>
<!-- ContratoRegistroComponent&#45;&gt;AppModule -->
<g id="edge16" class="edge">
<title>ContratoRegistroComponent&#45;&gt;AppModule</title>
<path fill="none" stroke="black" d="M8659,-84.91C8659,-104.14 8659,-131.8 8659,-131.8 8659,-131.8 5773.8,-131.8 5773.8,-131.8"/>
<polygon fill="black" stroke="black" points="5773.8,-128.3 5763.8,-131.8 5773.8,-135.3 5773.8,-128.3"/>
</g>
<!-- EntidadesAyudaComponent -->
<g id="node17" class="node">
<title>EntidadesAyudaComponent</title>
<polygon fill="#ffffb3" stroke="black" points="8551.86,-84.8 8378.14,-84.8 8378.14,-48.8 8551.86,-48.8 8551.86,-84.8"/>
<text text-anchor="middle" x="8465" y="-62.6" font-family="Times,serif" font-size="14.00">EntidadesAyudaComponent</text>
</g>
<!-- EntidadesAyudaComponent&#45;&gt;AppModule -->
<g id="edge17" class="edge">
<title>EntidadesAyudaComponent&#45;&gt;AppModule</title>
<path fill="none" stroke="black" d="M8465,-84.97C8465,-103.89 8465,-130.8 8465,-130.8 8465,-130.8 5773.72,-130.8 5773.72,-130.8"/>
<polygon fill="black" stroke="black" points="5773.72,-127.3 5763.72,-130.8 5773.72,-134.3 5773.72,-127.3"/>
</g>
<!-- InGaAyudaComponent -->
<g id="node18" class="node">
<title>InGaAyudaComponent</title>
<polygon fill="#ffffb3" stroke="black" points="8360.14,-84.8 8213.86,-84.8 8213.86,-48.8 8360.14,-48.8 8360.14,-84.8"/>
<text text-anchor="middle" x="8287" y="-62.6" font-family="Times,serif" font-size="14.00">InGaAyudaComponent</text>
</g>
<!-- InGaAyudaComponent&#45;&gt;AppModule -->
<g id="edge18" class="edge">
<title>InGaAyudaComponent&#45;&gt;AppModule</title>
<path fill="none" stroke="black" d="M8287,-85.02C8287,-103.63 8287,-129.8 8287,-129.8 8287,-129.8 5773.85,-129.8 5773.85,-129.8"/>
<polygon fill="black" stroke="black" points="5773.85,-126.3 5763.85,-129.8 5773.85,-133.3 5773.85,-126.3"/>
</g>
<!-- InGaInicioComponent -->
<g id="node19" class="node">
<title>InGaInicioComponent</title>
<polygon fill="#ffffb3" stroke="black" points="8195.97,-84.8 8054.03,-84.8 8054.03,-48.8 8195.97,-48.8 8195.97,-84.8"/>
<text text-anchor="middle" x="8125" y="-62.6" font-family="Times,serif" font-size="14.00">InGaInicioComponent</text>
</g>
<!-- InGaInicioComponent&#45;&gt;AppModule -->
<g id="edge19" class="edge">
<title>InGaInicioComponent&#45;&gt;AppModule</title>
<path fill="none" stroke="black" d="M8125,-85.1C8125,-103.07 8125,-127.8 8125,-127.8 8125,-127.8 5773.71,-127.8 5773.71,-127.8"/>
<polygon fill="black" stroke="black" points="5773.71,-124.3 5763.71,-127.8 5773.71,-131.3 5773.71,-124.3"/>
</g>
<!-- IngaDetalleComponent -->
<g id="node20" class="node">
<title>IngaDetalleComponent</title>
<polygon fill="#ffffb3" stroke="black" points="8036.13,-84.8 7889.87,-84.8 7889.87,-48.8 8036.13,-48.8 8036.13,-84.8"/>
<text text-anchor="middle" x="7963" y="-62.6" font-family="Times,serif" font-size="14.00">IngaDetalleComponent</text>
</g>
<!-- IngaDetalleComponent&#45;&gt;AppModule -->
<g id="edge20" class="edge">
<title>IngaDetalleComponent&#45;&gt;AppModule</title>
<path fill="none" stroke="black" d="M7963,-84.8C7963,-102.48 7963,-126.8 7963,-126.8 7963,-126.8 5773.78,-126.8 5773.78,-126.8"/>
<polygon fill="black" stroke="black" points="5773.78,-123.3 5763.78,-126.8 5773.78,-130.3 5773.78,-123.3"/>
</g>
<!-- IngaRegistroGeneralComponent -->
<g id="node21" class="node">
<title>IngaRegistroGeneralComponent</title>
<polygon fill="#ffffb3" stroke="black" points="7871.95,-84.8 7674.05,-84.8 7674.05,-48.8 7871.95,-48.8 7871.95,-84.8"/>
<text text-anchor="middle" x="7773" y="-62.6" font-family="Times,serif" font-size="14.00">IngaRegistroGeneralComponent</text>
</g>
<!-- IngaRegistroGeneralComponent&#45;&gt;AppModule -->
<g id="edge21" class="edge">
<title>IngaRegistroGeneralComponent&#45;&gt;AppModule</title>
<path fill="none" stroke="black" d="M7773,-84.82C7773,-102.17 7773,-125.8 7773,-125.8 7773,-125.8 5773.9,-125.8 5773.9,-125.8"/>
<polygon fill="black" stroke="black" points="5773.9,-122.3 5763.9,-125.8 5773.9,-129.3 5773.9,-122.3"/>
</g>
<!-- IngresoRegistroGeneralComponent -->
<g id="node22" class="node">
<title>IngresoRegistroGeneralComponent</title>
<polygon fill="#ffffb3" stroke="black" points="7655.56,-84.8 7440.44,-84.8 7440.44,-48.8 7655.56,-48.8 7655.56,-84.8"/>
<text text-anchor="middle" x="7548" y="-62.6" font-family="Times,serif" font-size="14.00">IngresoRegistroGeneralComponent</text>
</g>
<!-- IngresoRegistroGeneralComponent&#45;&gt;AppModule -->
<g id="edge22" class="edge">
<title>IngresoRegistroGeneralComponent&#45;&gt;AppModule</title>
<path fill="none" stroke="black" d="M7548,-84.83C7548,-101.86 7548,-124.8 7548,-124.8 7548,-124.8 5774.01,-124.8 5774.01,-124.8"/>
<polygon fill="black" stroke="black" points="5774.01,-121.3 5764.01,-124.8 5774.01,-128.3 5774.01,-121.3"/>
</g>
<!-- InicioAyudaComponent -->
<g id="node23" class="node">
<title>InicioAyudaComponent</title>
<polygon fill="#ffffb3" stroke="black" points="7422.81,-84.8 7271.19,-84.8 7271.19,-48.8 7422.81,-48.8 7422.81,-84.8"/>
<text text-anchor="middle" x="7347" y="-62.6" font-family="Times,serif" font-size="14.00">InicioAyudaComponent</text>
</g>
<!-- InicioAyudaComponent&#45;&gt;AppModule -->
<g id="edge23" class="edge">
<title>InicioAyudaComponent&#45;&gt;AppModule</title>
<path fill="none" stroke="black" d="M7347,-84.84C7347,-101.53 7347,-123.8 7347,-123.8 7347,-123.8 5773.8,-123.8 5773.8,-123.8"/>
<polygon fill="black" stroke="black" points="5773.8,-120.3 5763.8,-123.8 5773.8,-127.3 5773.8,-120.3"/>
</g>
<!-- InicioListaComponent -->
<g id="node24" class="node">
<title>InicioListaComponent</title>
<polygon fill="#ffffb3" stroke="black" points="7252.98,-84.8 7111.02,-84.8 7111.02,-48.8 7252.98,-48.8 7252.98,-84.8"/>
<text text-anchor="middle" x="7182" y="-62.6" font-family="Times,serif" font-size="14.00">InicioListaComponent</text>
</g>
<!-- InicioListaComponent&#45;&gt;AppModule -->
<g id="edge24" class="edge">
<title>InicioListaComponent&#45;&gt;AppModule</title>
<path fill="none" stroke="black" d="M7182,-84.83C7182,-101.2 7182,-122.8 7182,-122.8 7182,-122.8 5773.73,-122.8 5773.73,-122.8"/>
<polygon fill="black" stroke="black" points="5773.73,-119.3 5763.73,-122.8 5773.73,-126.3 5773.73,-119.3"/>
</g>
<!-- InmuebleDetalleComponent -->
<g id="node25" class="node">
<title>InmuebleDetalleComponent</title>
<polygon fill="#ffffb3" stroke="black" points="7093.12,-84.8 6918.88,-84.8 6918.88,-48.8 7093.12,-48.8 7093.12,-84.8"/>
<text text-anchor="middle" x="7006" y="-62.6" font-family="Times,serif" font-size="14.00">InmuebleDetalleComponent</text>
</g>
<!-- InmuebleDetalleComponent&#45;&gt;AppModule -->
<g id="edge25" class="edge">
<title>InmuebleDetalleComponent&#45;&gt;AppModule</title>
<path fill="none" stroke="black" d="M7006,-85.08C7006,-100.75 7006,-120.8 7006,-120.8 7006,-120.8 5773.99,-120.8 5773.99,-120.8"/>
<polygon fill="black" stroke="black" points="5773.99,-117.3 5763.99,-120.8 5773.99,-124.3 5773.99,-117.3"/>
</g>
<!-- InmuebleListaComponent -->
<g id="node26" class="node">
<title>InmuebleListaComponent</title>
<polygon fill="#ffffb3" stroke="black" points="6901.19,-84.8 6738.81,-84.8 6738.81,-48.8 6901.19,-48.8 6901.19,-84.8"/>
<text text-anchor="middle" x="6820" y="-62.6" font-family="Times,serif" font-size="14.00">InmuebleListaComponent</text>
</g>
<!-- InmuebleListaComponent&#45;&gt;AppModule -->
<g id="edge26" class="edge">
<title>InmuebleListaComponent&#45;&gt;AppModule</title>
<path fill="none" stroke="black" d="M6820,-85.04C6820,-100.37 6820,-119.8 6820,-119.8 6820,-119.8 5773.7,-119.8 5773.7,-119.8"/>
<polygon fill="black" stroke="black" points="5773.7,-116.3 5763.7,-119.8 5773.7,-123.3 5773.7,-116.3"/>
</g>
<!-- InmueblesAyudaComponent -->
<g id="node27" class="node">
<title>InmueblesAyudaComponent</title>
<polygon fill="#ffffb3" stroke="black" points="6720.47,-84.8 6543.53,-84.8 6543.53,-48.8 6720.47,-48.8 6720.47,-84.8"/>
<text text-anchor="middle" x="6632" y="-62.6" font-family="Times,serif" font-size="14.00">InmueblesAyudaComponent</text>
</g>
<!-- InmueblesAyudaComponent&#45;&gt;AppModule -->
<g id="edge27" class="edge">
<title>InmueblesAyudaComponent&#45;&gt;AppModule</title>
<path fill="none" stroke="black" d="M6632,-84.99C6632,-99.98 6632,-118.8 6632,-118.8 6632,-118.8 5773.77,-118.8 5773.77,-118.8"/>
<polygon fill="black" stroke="black" points="5773.77,-115.3 5763.77,-118.8 5773.77,-122.3 5773.77,-115.3"/>
</g>
<!-- InmueblesRegistroComponent -->
<g id="node28" class="node">
<title>InmueblesRegistroComponent</title>
<polygon fill="#ffffb3" stroke="black" points="6525.59,-84.8 6338.41,-84.8 6338.41,-48.8 6525.59,-48.8 6525.59,-84.8"/>
<text text-anchor="middle" x="6432" y="-62.6" font-family="Times,serif" font-size="14.00">InmueblesRegistroComponent</text>
</g>
<!-- InmueblesRegistroComponent&#45;&gt;AppModule -->
<g id="edge28" class="edge">
<title>InmueblesRegistroComponent&#45;&gt;AppModule</title>
<path fill="none" stroke="black" d="M6432,-84.92C6432,-99.58 6432,-117.8 6432,-117.8 6432,-117.8 5773.76,-117.8 5773.76,-117.8"/>
<polygon fill="black" stroke="black" points="5773.76,-114.3 5763.76,-117.8 5773.76,-121.3 5773.76,-114.3"/>
</g>
<!-- IntervinienteDetalleComponent -->
<g id="node29" class="node">
<title>IntervinienteDetalleComponent</title>
<polygon fill="#ffffb3" stroke="black" points="6320.78,-84.8 6127.22,-84.8 6127.22,-48.8 6320.78,-48.8 6320.78,-84.8"/>
<text text-anchor="middle" x="6224" y="-62.6" font-family="Times,serif" font-size="14.00">IntervinienteDetalleComponent</text>
</g>
<!-- IntervinienteDetalleComponent&#45;&gt;AppModule -->
<g id="edge29" class="edge">
<title>IntervinienteDetalleComponent&#45;&gt;AppModule</title>
<path fill="none" stroke="black" d="M6224,-84.85C6224,-99.17 6224,-116.8 6224,-116.8 6224,-116.8 5773.94,-116.8 5773.94,-116.8"/>
<polygon fill="black" stroke="black" points="5773.94,-113.3 5763.94,-116.8 5773.94,-120.3 5773.94,-113.3"/>
</g>
<!-- IntervinienteListaComponent -->
<g id="node30" class="node">
<title>IntervinienteListaComponent</title>
<polygon fill="#ffffb3" stroke="black" points="6109.35,-84.8 5928.65,-84.8 5928.65,-48.8 6109.35,-48.8 6109.35,-84.8"/>
<text text-anchor="middle" x="6019" y="-62.6" font-family="Times,serif" font-size="14.00">IntervinienteListaComponent</text>
</g>
<!-- IntervinienteListaComponent&#45;&gt;AppModule -->
<g id="edge30" class="edge">
<title>IntervinienteListaComponent&#45;&gt;AppModule</title>
<path fill="none" stroke="black" d="M6019,-85.05C6019,-98.98 6019,-115.8 6019,-115.8 6019,-115.8 5773.92,-115.8 5773.92,-115.8"/>
<polygon fill="black" stroke="black" points="5773.92,-112.3 5763.92,-115.8 5773.92,-119.3 5773.92,-112.3"/>
</g>
<!-- IntervinienteRegistroComponent -->
<g id="node31" class="node">
<title>IntervinienteRegistroComponent</title>
<polygon fill="#ffffb3" stroke="black" points="5910.3,-84.8 5709.7,-84.8 5709.7,-48.8 5910.3,-48.8 5910.3,-84.8"/>
<text text-anchor="middle" x="5810" y="-62.6" font-family="Times,serif" font-size="14.00">IntervinienteRegistroComponent</text>
</g>
<!-- IntervinienteRegistroComponent&#45;&gt;AppModule -->
<g id="edge31" class="edge">
<title>IntervinienteRegistroComponent&#45;&gt;AppModule</title>
<path fill="none" stroke="black" d="M5736.84,-84.91C5736.84,-84.91 5736.84,-103.79 5736.84,-103.79"/>
<polygon fill="black" stroke="black" points="5733.34,-103.79 5736.84,-113.79 5740.34,-103.79 5733.34,-103.79"/>
</g>
<!-- LoginComponent -->
<g id="node32" class="node">
<title>LoginComponent</title>
<polygon fill="#ffffb3" stroke="black" points="5691.27,-84.8 5576.73,-84.8 5576.73,-48.8 5691.27,-48.8 5691.27,-84.8"/>
<text text-anchor="middle" x="5634" y="-62.6" font-family="Times,serif" font-size="14.00">LoginComponent</text>
</g>
<!-- LoginComponent&#45;&gt;AppModule -->
<g id="edge32" class="edge">
<title>LoginComponent&#45;&gt;AppModule</title>
<path fill="none" stroke="black" d="M5685.78,-84.91C5685.78,-84.91 5685.78,-103.79 5685.78,-103.79"/>
<polygon fill="black" stroke="black" points="5682.28,-103.79 5685.78,-113.79 5689.28,-103.79 5682.28,-103.79"/>
</g>
<!-- LoginNavComponent -->
<g id="node33" class="node">
<title>LoginNavComponent</title>
<polygon fill="#ffffb3" stroke="black" points="5559.1,-84.8 5420.9,-84.8 5420.9,-48.8 5559.1,-48.8 5559.1,-84.8"/>
<text text-anchor="middle" x="5490" y="-62.6" font-family="Times,serif" font-size="14.00">LoginNavComponent</text>
</g>
<!-- LoginNavComponent&#45;&gt;AppModule -->
<g id="edge33" class="edge">
<title>LoginNavComponent&#45;&gt;AppModule</title>
<path fill="none" stroke="black" d="M5490,-85.05C5490,-98.98 5490,-115.8 5490,-115.8 5490,-115.8 5670.26,-115.8 5670.26,-115.8"/>
<polygon fill="black" stroke="black" points="5670.26,-119.3 5680.26,-115.8 5670.26,-112.3 5670.26,-119.3"/>
</g>
<!-- ModificacionTiposComponent -->
<g id="node34" class="node">
<title>ModificacionTiposComponent</title>
<polygon fill="#ffffb3" stroke="black" points="5403.14,-84.8 5214.86,-84.8 5214.86,-48.8 5403.14,-48.8 5403.14,-84.8"/>
<text text-anchor="middle" x="5309" y="-62.6" font-family="Times,serif" font-size="14.00">ModificacionTiposComponent</text>
</g>
<!-- ModificacionTiposComponent&#45;&gt;AppModule -->
<g id="edge34" class="edge">
<title>ModificacionTiposComponent&#45;&gt;AppModule</title>
<path fill="none" stroke="black" d="M5309,-84.85C5309,-99.17 5309,-116.8 5309,-116.8 5309,-116.8 5670.13,-116.8 5670.13,-116.8"/>
<polygon fill="black" stroke="black" points="5670.13,-120.3 5680.13,-116.8 5670.13,-113.3 5670.13,-120.3"/>
</g>
<!-- NavAppComponent -->
<g id="node35" class="node">
<title>NavAppComponent</title>
<polygon fill="#ffffb3" stroke="black" points="5196.27,-84.8 5067.73,-84.8 5067.73,-48.8 5196.27,-48.8 5196.27,-84.8"/>
<text text-anchor="middle" x="5132" y="-62.6" font-family="Times,serif" font-size="14.00">NavAppComponent</text>
</g>
<!-- NavAppComponent&#45;&gt;AppModule -->
<g id="edge35" class="edge">
<title>NavAppComponent&#45;&gt;AppModule</title>
<path fill="none" stroke="black" d="M5132,-84.92C5132,-99.58 5132,-117.8 5132,-117.8 5132,-117.8 5670.04,-117.8 5670.04,-117.8"/>
<polygon fill="black" stroke="black" points="5670.04,-121.3 5680.04,-117.8 5670.04,-114.3 5670.04,-121.3"/>
</g>
<!-- PeriodoListaComponent -->
<g id="node36" class="node">
<title>PeriodoListaComponent</title>
<polygon fill="#ffffb3" stroke="black" points="5049.38,-84.8 4896.62,-84.8 4896.62,-48.8 5049.38,-48.8 5049.38,-84.8"/>
<text text-anchor="middle" x="4973" y="-62.6" font-family="Times,serif" font-size="14.00">PeriodoListaComponent</text>
</g>
<!-- PeriodoListaComponent&#45;&gt;AppModule -->
<g id="edge36" class="edge">
<title>PeriodoListaComponent&#45;&gt;AppModule</title>
<path fill="none" stroke="black" d="M4973,-84.99C4973,-99.98 4973,-118.8 4973,-118.8 4973,-118.8 5670.13,-118.8 5670.13,-118.8"/>
<polygon fill="black" stroke="black" points="5670.13,-122.3 5680.13,-118.8 5670.13,-115.3 5670.13,-122.3"/>
</g>
<!-- PeriodoRegistroComponent -->
<g id="node37" class="node">
<title>PeriodoRegistroComponent</title>
<polygon fill="#ffffb3" stroke="black" points="4878.32,-84.8 4705.68,-84.8 4705.68,-48.8 4878.32,-48.8 4878.32,-84.8"/>
<text text-anchor="middle" x="4792" y="-62.6" font-family="Times,serif" font-size="14.00">PeriodoRegistroComponent</text>
</g>
<!-- PeriodoRegistroComponent&#45;&gt;AppModule -->
<g id="edge37" class="edge">
<title>PeriodoRegistroComponent&#45;&gt;AppModule</title>
<path fill="none" stroke="black" d="M4792,-85.04C4792,-100.37 4792,-119.8 4792,-119.8 4792,-119.8 5670.23,-119.8 5670.23,-119.8"/>
<polygon fill="black" stroke="black" points="5670.23,-123.3 5680.23,-119.8 5670.23,-116.3 5670.23,-123.3"/>
</g>
<!-- PreciosComponent -->
<g id="node38" class="node">
<title>PreciosComponent</title>
<polygon fill="#ffffb3" stroke="black" points="4688.05,-84.8 4565.95,-84.8 4565.95,-48.8 4688.05,-48.8 4688.05,-84.8"/>
<text text-anchor="middle" x="4627" y="-62.6" font-family="Times,serif" font-size="14.00">PreciosComponent</text>
</g>
<!-- PreciosComponent&#45;&gt;AppModule -->
<g id="edge38" class="edge">
<title>PreciosComponent&#45;&gt;AppModule</title>
<path fill="none" stroke="black" d="M4627,-85.08C4627,-100.75 4627,-120.8 4627,-120.8 4627,-120.8 5670.08,-120.8 5670.08,-120.8"/>
<polygon fill="black" stroke="black" points="5670.08,-124.3 5680.08,-120.8 5670.08,-117.3 5670.08,-124.3"/>
</g>
<!-- PubliInicioComponent -->
<g id="node39" class="node">
<title>PubliInicioComponent</title>
<polygon fill="#ffffb3" stroke="black" points="4547.55,-84.8 4404.45,-84.8 4404.45,-48.8 4547.55,-48.8 4547.55,-84.8"/>
<text text-anchor="middle" x="4476" y="-62.6" font-family="Times,serif" font-size="14.00">PubliInicioComponent</text>
</g>
<!-- PubliInicioComponent&#45;&gt;AppModule -->
<g id="edge39" class="edge">
<title>PubliInicioComponent&#45;&gt;AppModule</title>
<path fill="none" stroke="black" d="M4476,-84.83C4476,-101.2 4476,-122.8 4476,-122.8 4476,-122.8 5670.19,-122.8 5670.19,-122.8"/>
<polygon fill="black" stroke="black" points="5670.19,-126.3 5680.19,-122.8 5670.19,-119.3 5670.19,-126.3"/>
</g>
<!-- QuienessomosComponent -->
<g id="node40" class="node">
<title>QuienessomosComponent</title>
<polygon fill="#ffffb3" stroke="black" points="4386.49,-84.8 4223.51,-84.8 4223.51,-48.8 4386.49,-48.8 4386.49,-84.8"/>
<text text-anchor="middle" x="4305" y="-62.6" font-family="Times,serif" font-size="14.00">QuienessomosComponent</text>
</g>
<!-- QuienessomosComponent&#45;&gt;AppModule -->
<g id="edge40" class="edge">
<title>QuienessomosComponent&#45;&gt;AppModule</title>
<path fill="none" stroke="black" d="M4305,-84.84C4305,-101.53 4305,-123.8 4305,-123.8 4305,-123.8 5669.98,-123.8 5669.98,-123.8"/>
<polygon fill="black" stroke="black" points="5669.98,-127.3 5679.98,-123.8 5669.98,-120.3 5669.98,-127.3"/>
</g>
<!-- RolListaComponent -->
<g id="node41" class="node">
<title>RolListaComponent</title>
<polygon fill="#ffffb3" stroke="black" points="4205.55,-84.8 4076.45,-84.8 4076.45,-48.8 4205.55,-48.8 4205.55,-84.8"/>
<text text-anchor="middle" x="4141" y="-62.6" font-family="Times,serif" font-size="14.00">RolListaComponent</text>
</g>
<!-- RolListaComponent&#45;&gt;AppModule -->
<g id="edge41" class="edge">
<title>RolListaComponent&#45;&gt;AppModule</title>
<path fill="none" stroke="black" d="M4141,-84.83C4141,-101.86 4141,-124.8 4141,-124.8 4141,-124.8 5670.12,-124.8 5670.12,-124.8"/>
<polygon fill="black" stroke="black" points="5670.12,-128.3 5680.12,-124.8 5670.12,-121.3 5670.12,-128.3"/>
</g>
<!-- RolRegistroComponent -->
<g id="node42" class="node">
<title>RolRegistroComponent</title>
<polygon fill="#ffffb3" stroke="black" points="4058.5,-84.8 3909.5,-84.8 3909.5,-48.8 4058.5,-48.8 4058.5,-84.8"/>
<text text-anchor="middle" x="3984" y="-62.6" font-family="Times,serif" font-size="14.00">RolRegistroComponent</text>
</g>
<!-- RolRegistroComponent&#45;&gt;AppModule -->
<g id="edge42" class="edge">
<title>RolRegistroComponent&#45;&gt;AppModule</title>
<path fill="none" stroke="black" d="M3984,-84.82C3984,-102.17 3984,-125.8 3984,-125.8 3984,-125.8 5670.33,-125.8 5670.33,-125.8"/>
<polygon fill="black" stroke="black" points="5670.33,-129.3 5680.33,-125.8 5670.33,-122.3 5670.33,-129.3"/>
</g>
<!-- SliderComponent -->
<g id="node43" class="node">
<title>SliderComponent</title>
<polygon fill="#ffffb3" stroke="black" points="3891.27,-84.8 3776.73,-84.8 3776.73,-48.8 3891.27,-48.8 3891.27,-84.8"/>
<text text-anchor="middle" x="3834" y="-62.6" font-family="Times,serif" font-size="14.00">SliderComponent</text>
</g>
<!-- SliderComponent&#45;&gt;AppModule -->
<g id="edge43" class="edge">
<title>SliderComponent&#45;&gt;AppModule</title>
<path fill="none" stroke="black" d="M3834,-84.8C3834,-102.48 3834,-126.8 3834,-126.8 3834,-126.8 5669.92,-126.8 5669.92,-126.8"/>
<polygon fill="black" stroke="black" points="5669.92,-130.3 5679.92,-126.8 5669.92,-123.3 5669.92,-130.3"/>
</g>
<!-- TipoCategoriaListaComponent -->
<g id="node44" class="node">
<title>TipoCategoriaListaComponent</title>
<polygon fill="#ffffb3" stroke="black" points="3759.19,-84.8 3568.81,-84.8 3568.81,-48.8 3759.19,-48.8 3759.19,-84.8"/>
<text text-anchor="middle" x="3664" y="-62.6" font-family="Times,serif" font-size="14.00">TipoCategoriaListaComponent</text>
</g>
<!-- TipoCategoriaListaComponent&#45;&gt;AppModule -->
<g id="edge44" class="edge">
<title>TipoCategoriaListaComponent&#45;&gt;AppModule</title>
<path fill="none" stroke="black" d="M3664,-85.1C3664,-103.07 3664,-127.8 3664,-127.8 3664,-127.8 5669.96,-127.8 5669.96,-127.8"/>
<polygon fill="black" stroke="black" points="5669.96,-131.3 5679.96,-127.8 5669.96,-124.3 5669.96,-131.3"/>
</g>
<!-- TipoCategoriaRegistroComponent -->
<g id="node45" class="node">
<title>TipoCategoriaRegistroComponent</title>
<polygon fill="#ffffb3" stroke="black" points="3550.64,-84.8 3341.36,-84.8 3341.36,-48.8 3550.64,-48.8 3550.64,-84.8"/>
<text text-anchor="middle" x="3446" y="-62.6" font-family="Times,serif" font-size="14.00">TipoCategoriaRegistroComponent</text>
</g>
<!-- TipoCategoriaRegistroComponent&#45;&gt;AppModule -->
<g id="edge45" class="edge">
<title>TipoCategoriaRegistroComponent&#45;&gt;AppModule</title>
<path fill="none" stroke="black" d="M3446,-85.02C3446,-103.63 3446,-129.8 3446,-129.8 3446,-129.8 5670.06,-129.8 5670.06,-129.8"/>
<polygon fill="black" stroke="black" points="5670.06,-133.3 5680.06,-129.8 5670.06,-126.3 5670.06,-133.3"/>
</g>
<!-- TipoCoceptoListaComponent -->
<g id="node46" class="node">
<title>TipoCoceptoListaComponent</title>
<polygon fill="#ffffb3" stroke="black" points="3323.42,-84.8 3140.58,-84.8 3140.58,-48.8 3323.42,-48.8 3323.42,-84.8"/>
<text text-anchor="middle" x="3232" y="-62.6" font-family="Times,serif" font-size="14.00">TipoCoceptoListaComponent</text>
</g>
<!-- TipoCoceptoListaComponent&#45;&gt;AppModule -->
<g id="edge46" class="edge">
<title>TipoCoceptoListaComponent&#45;&gt;AppModule</title>
<path fill="none" stroke="black" d="M3232,-84.97C3232,-103.89 3232,-130.8 3232,-130.8 3232,-130.8 5670.09,-130.8 5670.09,-130.8"/>
<polygon fill="black" stroke="black" points="5670.09,-134.3 5680.09,-130.8 5670.09,-127.3 5670.09,-134.3"/>
</g>
<!-- TipoConceptoRegistroComponent -->
<g id="node47" class="node">
<title>TipoConceptoRegistroComponent</title>
<polygon fill="#ffffb3" stroke="black" points="3122.37,-84.8 2913.63,-84.8 2913.63,-48.8 3122.37,-48.8 3122.37,-84.8"/>
<text text-anchor="middle" x="3018" y="-62.6" font-family="Times,serif" font-size="14.00">TipoConceptoRegistroComponent</text>
</g>
<!-- TipoConceptoRegistroComponent&#45;&gt;AppModule -->
<g id="edge47" class="edge">
<title>TipoConceptoRegistroComponent&#45;&gt;AppModule</title>
<path fill="none" stroke="black" d="M3018,-84.91C3018,-104.14 3018,-131.8 3018,-131.8 3018,-131.8 5670.07,-131.8 5670.07,-131.8"/>
<polygon fill="black" stroke="black" points="5670.07,-135.3 5680.07,-131.8 5670.07,-128.3 5670.07,-135.3"/>
</g>
<!-- TipoContratoListaComponent -->
<g id="node48" class="node">
<title>TipoContratoListaComponent</title>
<polygon fill="#ffffb3" stroke="black" points="2895.26,-84.8 2710.74,-84.8 2710.74,-48.8 2895.26,-48.8 2895.26,-84.8"/>
<text text-anchor="middle" x="2803" y="-62.6" font-family="Times,serif" font-size="14.00">TipoContratoListaComponent</text>
</g>
<!-- TipoContratoListaComponent&#45;&gt;AppModule -->
<g id="edge48" class="edge">
<title>TipoContratoListaComponent&#45;&gt;AppModule</title>
<path fill="none" stroke="black" d="M2803,-84.83C2803,-104.38 2803,-132.8 2803,-132.8 2803,-132.8 5670.18,-132.8 5670.18,-132.8"/>
<polygon fill="black" stroke="black" points="5670.18,-136.3 5680.18,-132.8 5670.18,-129.3 5670.18,-136.3"/>
</g>
<!-- TipoContratoRegistroComponent -->
<g id="node49" class="node">
<title>TipoContratoRegistroComponent</title>
<polygon fill="#ffffb3" stroke="black" points="2693.21,-84.8 2488.79,-84.8 2488.79,-48.8 2693.21,-48.8 2693.21,-84.8"/>
<text text-anchor="middle" x="2591" y="-62.6" font-family="Times,serif" font-size="14.00">TipoContratoRegistroComponent</text>
</g>
<!-- TipoContratoRegistroComponent&#45;&gt;AppModule -->
<g id="edge49" class="edge">
<title>TipoContratoRegistroComponent&#45;&gt;AppModule</title>
<path fill="none" stroke="black" d="M2591,-85.11C2591,-104.95 2591,-133.8 2591,-133.8 2591,-133.8 5670.11,-133.8 5670.11,-133.8"/>
<polygon fill="black" stroke="black" points="5670.11,-137.3 5680.11,-133.8 5670.11,-130.3 5670.11,-137.3"/>
</g>
<!-- TipoInmuebleListaComponent -->
<g id="node50" class="node">
<title>TipoInmuebleListaComponent</title>
<polygon fill="#ffffb3" stroke="black" points="2471.14,-84.8 2282.86,-84.8 2282.86,-48.8 2471.14,-48.8 2471.14,-84.8"/>
<text text-anchor="middle" x="2377" y="-62.6" font-family="Times,serif" font-size="14.00">TipoInmuebleListaComponent</text>
</g>
<!-- TipoInmuebleListaComponent&#45;&gt;AppModule -->
<g id="edge50" class="edge">
<title>TipoInmuebleListaComponent&#45;&gt;AppModule</title>
<path fill="none" stroke="black" d="M2377,-85.02C2377,-105.17 2377,-134.8 2377,-134.8 2377,-134.8 5670.31,-134.8 5670.31,-134.8"/>
<polygon fill="black" stroke="black" points="5670.31,-138.3 5680.31,-134.8 5670.31,-131.3 5670.31,-138.3"/>
</g>
<!-- TipoInmuebleRegistroComponent -->
<g id="node51" class="node">
<title>TipoInmuebleRegistroComponent</title>
<polygon fill="#ffffb3" stroke="black" points="2265.08,-84.8 2056.92,-84.8 2056.92,-48.8 2265.08,-48.8 2265.08,-84.8"/>
<text text-anchor="middle" x="2161" y="-62.6" font-family="Times,serif" font-size="14.00">TipoInmuebleRegistroComponent</text>
</g>
<!-- TipoInmuebleRegistroComponent&#45;&gt;AppModule -->
<g id="edge51" class="edge">
<title>TipoInmuebleRegistroComponent&#45;&gt;AppModule</title>
<path fill="none" stroke="black" d="M2161,-84.83C2161,-105.57 2161,-136.8 2161,-136.8 2161,-136.8 5670.15,-136.8 5670.15,-136.8"/>
<polygon fill="black" stroke="black" points="5670.15,-140.3 5680.15,-136.8 5670.15,-133.3 5670.15,-140.3"/>
</g>
<!-- TipoIntervinienteListaComponent -->
<g id="node52" class="node">
<title>TipoIntervinienteListaComponent</title>
<polygon fill="#ffffb3" stroke="black" points="2038.79,-84.8 1831.21,-84.8 1831.21,-48.8 2038.79,-48.8 2038.79,-84.8"/>
<text text-anchor="middle" x="1935" y="-62.6" font-family="Times,serif" font-size="14.00">TipoIntervinienteListaComponent</text>
</g>
<!-- TipoIntervinienteListaComponent&#45;&gt;AppModule -->
<g id="edge52" class="edge">
<title>TipoIntervinienteListaComponent&#45;&gt;AppModule</title>
<path fill="none" stroke="black" d="M1935,-85.08C1935,-106.12 1935,-137.8 1935,-137.8 1935,-137.8 5670.12,-137.8 5670.12,-137.8"/>
<polygon fill="black" stroke="black" points="5670.12,-141.3 5680.12,-137.8 5670.12,-134.3 5670.12,-141.3"/>
</g>
<!-- TipoIntervinienteRegistroComponent -->
<g id="node53" class="node">
<title>TipoIntervinienteRegistroComponent</title>
<polygon fill="#ffffb3" stroke="black" points="1813.24,-84.8 1586.76,-84.8 1586.76,-48.8 1813.24,-48.8 1813.24,-84.8"/>
<text text-anchor="middle" x="1700" y="-62.6" font-family="Times,serif" font-size="14.00">TipoIntervinienteRegistroComponent</text>
</g>
<!-- TipoIntervinienteRegistroComponent&#45;&gt;AppModule -->
<g id="edge53" class="edge">
<title>TipoIntervinienteRegistroComponent&#45;&gt;AppModule</title>
<path fill="none" stroke="black" d="M1700,-84.97C1700,-106.3 1700,-138.8 1700,-138.8 1700,-138.8 5670.22,-138.8 5670.22,-138.8"/>
<polygon fill="black" stroke="black" points="5670.22,-142.3 5680.22,-138.8 5670.22,-135.3 5670.22,-142.3"/>
</g>
<!-- TipoPagoListaComponent -->
<g id="node54" class="node">
<title>TipoPagoListaComponent</title>
<polygon fill="#ffffb3" stroke="black" points="1568.77,-84.8 1405.23,-84.8 1405.23,-48.8 1568.77,-48.8 1568.77,-84.8"/>
<text text-anchor="middle" x="1487" y="-62.6" font-family="Times,serif" font-size="14.00">TipoPagoListaComponent</text>
</g>
<!-- TipoPagoListaComponent&#45;&gt;AppModule -->
<g id="edge54" class="edge">
<title>TipoPagoListaComponent&#45;&gt;AppModule</title>
<path fill="none" stroke="black" d="M1487,-84.84C1487,-106.46 1487,-139.8 1487,-139.8 1487,-139.8 5670.08,-139.8 5670.08,-139.8"/>
<polygon fill="black" stroke="black" points="5670.08,-143.3 5680.08,-139.8 5670.08,-136.3 5670.08,-143.3"/>
</g>
<!-- TipoPagoRegistroComponent -->
<g id="node55" class="node">
<title>TipoPagoRegistroComponent</title>
<polygon fill="#ffffb3" stroke="black" points="1387.71,-84.8 1204.29,-84.8 1204.29,-48.8 1387.71,-48.8 1387.71,-84.8"/>
<text text-anchor="middle" x="1296" y="-62.6" font-family="Times,serif" font-size="14.00">TipoPagoRegistroComponent</text>
</g>
<!-- TipoPagoRegistroComponent&#45;&gt;AppModule -->
<g id="edge55" class="edge">
<title>TipoPagoRegistroComponent&#45;&gt;AppModule</title>
<path fill="none" stroke="black" d="M1296,-85.09C1296,-107.01 1296,-140.8 1296,-140.8 1296,-140.8 5670.31,-140.8 5670.31,-140.8"/>
<polygon fill="black" stroke="black" points="5670.31,-144.3 5680.31,-140.8 5670.31,-137.3 5670.31,-144.3"/>
</g>
<!-- TiposAyudaComponent -->
<g id="node56" class="node">
<title>TiposAyudaComponent</title>
<polygon fill="#ffffb3" stroke="black" points="1186.05,-84.8 1035.95,-84.8 1035.95,-48.8 1186.05,-48.8 1186.05,-84.8"/>
<text text-anchor="middle" x="1111" y="-62.6" font-family="Times,serif" font-size="14.00">TiposAyudaComponent</text>
</g>
<!-- TiposAyudaComponent&#45;&gt;AppModule -->
<g id="edge56" class="edge">
<title>TiposAyudaComponent&#45;&gt;AppModule</title>
<path fill="none" stroke="black" d="M1111,-84.96C1111,-107.15 1111,-141.8 1111,-141.8 1111,-141.8 5670.02,-141.8 5670.02,-141.8"/>
<polygon fill="black" stroke="black" points="5670.02,-145.3 5680.02,-141.8 5670.02,-138.3 5670.02,-145.3"/>
</g>
<!-- TiposComponent -->
<g id="node57" class="node">
<title>TiposComponent</title>
<polygon fill="#ffffb3" stroke="black" points="1017.72,-84.8 904.28,-84.8 904.28,-48.8 1017.72,-48.8 1017.72,-84.8"/>
<text text-anchor="middle" x="961" y="-62.6" font-family="Times,serif" font-size="14.00">TiposComponent</text>
</g>
<!-- TiposComponent&#45;&gt;AppModule -->
<g id="edge57" class="edge">
<title>TiposComponent&#45;&gt;AppModule</title>
<path fill="none" stroke="black" d="M961,-85.05C961,-107.82 961,-143.8 961,-143.8 961,-143.8 5670.12,-143.8 5670.12,-143.8"/>
<polygon fill="black" stroke="black" points="5670.12,-147.3 5680.12,-143.8 5670.12,-140.3 5670.12,-147.3"/>
</g>
<!-- UsuarioAyudaComponent -->
<g id="node58" class="node">
<title>UsuarioAyudaComponent</title>
<polygon fill="#ffffb3" stroke="black" points="886.48,-84.8 723.52,-84.8 723.52,-48.8 886.48,-48.8 886.48,-84.8"/>
<text text-anchor="middle" x="805" y="-62.6" font-family="Times,serif" font-size="14.00">UsuarioAyudaComponent</text>
</g>
<!-- UsuarioAyudaComponent&#45;&gt;AppModule -->
<g id="edge58" class="edge">
<title>UsuarioAyudaComponent&#45;&gt;AppModule</title>
<path fill="none" stroke="black" d="M805,-84.89C805,-107.93 805,-144.8 805,-144.8 805,-144.8 5670.23,-144.8 5670.23,-144.8"/>
<polygon fill="black" stroke="black" points="5670.23,-148.3 5680.23,-144.8 5670.23,-141.3 5670.23,-148.3"/>
</g>
<!-- UsuarioDetalleComponent -->
<g id="node59" class="node">
<title>UsuarioDetalleComponent</title>
<polygon fill="#ffffb3" stroke="black" points="705.08,-84.8 538.92,-84.8 538.92,-48.8 705.08,-48.8 705.08,-84.8"/>
<text text-anchor="middle" x="622" y="-62.6" font-family="Times,serif" font-size="14.00">UsuarioDetalleComponent</text>
</g>
<!-- UsuarioDetalleComponent&#45;&gt;AppModule -->
<g id="edge59" class="edge">
<title>UsuarioDetalleComponent&#45;&gt;AppModule</title>
<path fill="none" stroke="black" d="M622,-85.12C622,-108.46 622,-145.8 622,-145.8 622,-145.8 5670.2,-145.8 5670.2,-145.8"/>
<polygon fill="black" stroke="black" points="5670.2,-149.3 5680.2,-145.8 5670.2,-142.3 5670.2,-149.3"/>
</g>
<!-- UsuarioListaComponent -->
<g id="node60" class="node">
<title>UsuarioListaComponent</title>
<polygon fill="#ffffb3" stroke="black" points="520.65,-84.8 367.35,-84.8 367.35,-48.8 520.65,-48.8 520.65,-84.8"/>
<text text-anchor="middle" x="444" y="-62.6" font-family="Times,serif" font-size="14.00">UsuarioListaComponent</text>
</g>
<!-- UsuarioListaComponent&#45;&gt;AppModule -->
<g id="edge60" class="edge">
<title>UsuarioListaComponent&#45;&gt;AppModule</title>
<path fill="none" stroke="black" d="M444,-84.95C444,-108.56 444,-146.8 444,-146.8 444,-146.8 5670.28,-146.8 5670.28,-146.8"/>
<polygon fill="black" stroke="black" points="5670.28,-150.3 5680.28,-146.8 5670.28,-143.3 5670.28,-150.3"/>
</g>
<!-- UsuarioRegistroComponent -->
<g id="node61" class="node">
<title>UsuarioRegistroComponent</title>
<polygon fill="#ffffb3" stroke="black" points="349.6,-84.8 176.4,-84.8 176.4,-48.8 349.6,-48.8 349.6,-84.8"/>
<text text-anchor="middle" x="263" y="-62.6" font-family="Times,serif" font-size="14.00">UsuarioRegistroComponent</text>
</g>
<!-- UsuarioRegistroComponent&#45;&gt;AppModule -->
<g id="edge61" class="edge">
<title>UsuarioRegistroComponent&#45;&gt;AppModule</title>
<path fill="none" stroke="black" d="M263,-85.18C263,-109.08 263,-147.8 263,-147.8 263,-147.8 5670.03,-147.8 5670.03,-147.8"/>
<polygon fill="black" stroke="black" points="5670.03,-151.3 5680.03,-147.8 5670.03,-144.3 5670.03,-151.3"/>
</g>
<!-- AppComponent  -->
<g id="node64" class="node">
<title>AppComponent </title>
<polygon fill="#80b1d3" stroke="black" points="5776.44,-214.8 5667.56,-214.8 5667.56,-178.8 5776.44,-178.8 5776.44,-214.8"/>
<text text-anchor="middle" x="5722" y="-192.6" font-family="Times,serif" font-size="14.00">AppComponent </text>
</g>
<!-- AppModule&#45;&gt;AppComponent  -->
<g id="edge63" class="edge">
<title>AppModule&#45;&gt;AppComponent </title>
<path fill="none" stroke="black" stroke-dasharray="1,5" d="M5722,-149.91C5722,-149.91 5722,-168.79 5722,-168.79"/>
<polygon fill="black" stroke="black" points="5718.5,-168.79 5722,-178.79 5725.5,-168.79 5718.5,-168.79"/>
</g>
<!-- AppRoutingModule -->
<g id="node63" class="node">
<title>AppRoutingModule</title>
<polygon fill="#8dd3c7" stroke="black" points="152.28,-84.8 149.28,-88.8 128.28,-88.8 125.28,-84.8 23.72,-84.8 23.72,-48.8 152.28,-48.8 152.28,-84.8"/>
<text text-anchor="middle" x="88" y="-62.6" font-family="Times,serif" font-size="14.00">AppRoutingModule</text>
</g>
<!-- AppRoutingModule&#45;&gt;AppModule -->
<g id="edge62" class="edge">
<title>AppRoutingModule&#45;&gt;AppModule</title>
<path fill="none" stroke="black" d="M88,-85C88,-109.16 88,-148.8 88,-148.8 88,-148.8 5670.29,-148.8 5670.29,-148.8"/>
<polygon fill="black" stroke="black" points="5670.29,-152.3 5680.29,-148.8 5670.29,-145.3 5670.29,-152.3"/>
</g>
</g>
</svg>
