<?xml version="1.0" encoding="UTF-8" standalone="no"?>
<!DOCTYPE svg PUBLIC "-//W3C//DTD SVG 1.1//EN"
 "http://www.w3.org/Graphics/SVG/1.1/DTD/svg11.dtd">
<!-- Generated by graphviz version 3.0.0 (20220226.1711)
 -->
<!-- Title: dependencies Pages: 1 -->
<svg width="11320pt" height="247pt"
 viewBox="0.00 0.00 11320.00 246.80" xmlns="http://www.w3.org/2000/svg" xmlns:xlink="http://www.w3.org/1999/xlink">
<g id="graph0" class="graph" transform="scale(1 1) rotate(0) translate(4 242.8)">
<title>dependencies</title>
<polygon fill="white" stroke="transparent" points="-4,4 -4,-242.8 11316,-242.8 11316,4 -4,4"/>
<text text-anchor="middle" x="5656" y="-8.2" font-family="sans-serif" font-size="14.00">dependencies</text>
<g id="clust1" class="cluster">
<title>cluster_AppModule</title>
<polygon fill="none" stroke="black" stroke-dasharray="1,5" points="8,-32.8 8,-230.8 11304,-230.8 11304,-32.8 8,-32.8"/>
</g>
<g id="clust2" class="cluster">
<title>cluster_AppModule_declarations</title>
<polygon fill="none" stroke="black" points="168,-40.8 168,-92.8 11296,-92.8 11296,-40.8 168,-40.8"/>
</g>
<g id="clust63" class="cluster">
<title>cluster_AppModule_imports</title>
<polygon fill="none" stroke="black" points="16,-40.8 16,-92.8 160,-92.8 160,-40.8 16,-40.8"/>
</g>
<g id="clust65" class="cluster">
<title>cluster_AppModule_bootstrap</title>
<polygon fill="none" stroke="black" points="5593,-170.8 5593,-222.8 5717,-222.8 5717,-170.8 5593,-170.8"/>
</g>
<!-- AdministradorRegistroComponent -->
<g id="node1" class="node">
<title>AdministradorRegistroComponent</title>
<polygon fill="#ffffb3" stroke="black" points="11288.43,-84.8 11077.57,-84.8 11077.57,-48.8 11288.43,-48.8 11288.43,-84.8"/>
<text text-anchor="middle" x="11183" y="-62.6" font-family="Times,serif" font-size="14.00">AdministradorRegistroComponent</text>
</g>
<!-- AppModule -->
<g id="node61" class="node">
<title>AppModule</title>
<polygon fill="#8dd3c7" stroke="black" points="5696.66,-149.8 5693.66,-153.8 5672.66,-153.8 5669.66,-149.8 5613.34,-149.8 5613.34,-113.8 5696.66,-113.8 5696.66,-149.8"/>
<text text-anchor="middle" x="5655" y="-127.6" font-family="Times,serif" font-size="14.00">AppModule</text>
</g>
<!-- AdministradorRegistroComponent&#45;&gt;AppModule -->
<g id="edge1" class="edge">
<title>AdministradorRegistroComponent&#45;&gt;AppModule</title>
<path fill="none" stroke="black" d="M11183,-85C11183,-109.16 11183,-148.8 11183,-148.8 11183,-148.8 5706.71,-148.8 5706.71,-148.8"/>
<polygon fill="black" stroke="black" points="5706.71,-145.3 5696.71,-148.8 5706.71,-152.3 5706.71,-145.3"/>
</g>
<!-- AppComponent -->
<g id="node2" class="node">
<title>AppComponent</title>
<polygon fill="#ffffb3" stroke="black" points="11059.94,-84.8 10954.06,-84.8 10954.06,-48.8 11059.94,-48.8 11059.94,-84.8"/>
<text text-anchor="middle" x="11007" y="-62.6" font-family="Times,serif" font-size="14.00">AppComponent</text>
</g>
<!-- AppComponent&#45;&gt;AppModule -->
<g id="edge2" class="edge">
<title>AppComponent&#45;&gt;AppModule</title>
<path fill="none" stroke="black" d="M11007,-85.18C11007,-109.08 11007,-147.8 11007,-147.8 11007,-147.8 5706.91,-147.8 5706.91,-147.8"/>
<polygon fill="black" stroke="black" points="5706.91,-144.3 5696.91,-147.8 5706.91,-151.3 5706.91,-144.3"/>
</g>
<!-- BalanceAyudaComponent -->
<g id="node3" class="node">
<title>BalanceAyudaComponent</title>
<polygon fill="#ffffb3" stroke="black" points="10935.74,-84.8 10772.26,-84.8 10772.26,-48.8 10935.74,-48.8 10935.74,-84.8"/>
<text text-anchor="middle" x="10854" y="-62.6" font-family="Times,serif" font-size="14.00">BalanceAyudaComponent</text>
</g>
<!-- BalanceAyudaComponent&#45;&gt;AppModule -->
<g id="edge3" class="edge">
<title>BalanceAyudaComponent&#45;&gt;AppModule</title>
<path fill="none" stroke="black" d="M10854,-84.95C10854,-108.56 10854,-146.8 10854,-146.8 10854,-146.8 5706.85,-146.8 5706.85,-146.8"/>
<polygon fill="black" stroke="black" points="5706.85,-143.3 5696.85,-146.8 5706.85,-150.3 5706.85,-143.3"/>
</g>
<!-- BalanceListaComponent -->
<g id="node4" class="node">
<title>BalanceListaComponent</title>
<polygon fill="#ffffb3" stroke="black" points="10754.41,-84.8 10599.59,-84.8 10599.59,-48.8 10754.41,-48.8 10754.41,-84.8"/>
<text text-anchor="middle" x="10677" y="-62.6" font-family="Times,serif" font-size="14.00">BalanceListaComponent</text>
</g>
<!-- BalanceListaComponent&#45;&gt;AppModule -->
<g id="edge4" class="edge">
<title>BalanceListaComponent&#45;&gt;AppModule</title>
<path fill="none" stroke="black" d="M10677,-85.12C10677,-108.46 10677,-145.8 10677,-145.8 10677,-145.8 5706.91,-145.8 5706.91,-145.8"/>
<polygon fill="black" stroke="black" points="5706.91,-142.3 5696.91,-145.8 5706.91,-149.3 5706.91,-142.3"/>
</g>
<!-- BalanceXAnioComponent -->
<g id="node5" class="node">
<title>BalanceXAnioComponent</title>
<polygon fill="#ffffb3" stroke="black" points="10582.03,-84.8 10417.97,-84.8 10417.97,-48.8 10582.03,-48.8 10582.03,-84.8"/>
<text text-anchor="middle" x="10500" y="-62.6" font-family="Times,serif" font-size="14.00">BalanceXAnioComponent</text>
</g>
<!-- BalanceXAnioComponent&#45;&gt;AppModule -->
<g id="edge5" class="edge">
<title>BalanceXAnioComponent&#45;&gt;AppModule</title>
<path fill="none" stroke="black" d="M10500,-84.89C10500,-107.93 10500,-144.8 10500,-144.8 10500,-144.8 5706.89,-144.8 5706.89,-144.8"/>
<polygon fill="black" stroke="black" points="5706.89,-141.3 5696.89,-144.8 5706.89,-148.3 5706.89,-141.3"/>
</g>
<!-- BalanceXInmuebleComponent -->
<g id="node6" class="node">
<title>BalanceXInmuebleComponent</title>
<polygon fill="#ffffb3" stroke="black" points="10399.89,-84.8 10210.11,-84.8 10210.11,-48.8 10399.89,-48.8 10399.89,-84.8"/>
<text text-anchor="middle" x="10305" y="-62.6" font-family="Times,serif" font-size="14.00">BalanceXInmuebleComponent</text>
</g>
<!-- BalanceXInmuebleComponent&#45;&gt;AppModule -->
<g id="edge6" class="edge">
<title>BalanceXInmuebleComponent&#45;&gt;AppModule</title>
<path fill="none" stroke="black" d="M10305,-85.05C10305,-107.82 10305,-143.8 10305,-143.8 10305,-143.8 5706.98,-143.8 5706.98,-143.8"/>
<polygon fill="black" stroke="black" points="5706.98,-140.3 5696.98,-143.8 5706.98,-147.3 5706.98,-140.3"/>
</g>
<!-- BalanceXMesComponent -->
<g id="node7" class="node">
<title>BalanceXMesComponent</title>
<polygon fill="#ffffb3" stroke="black" points="10192.14,-84.8 10031.86,-84.8 10031.86,-48.8 10192.14,-48.8 10192.14,-84.8"/>
<text text-anchor="middle" x="10112" y="-62.6" font-family="Times,serif" font-size="14.00">BalanceXMesComponent</text>
</g>
<!-- BalanceXMesComponent&#45;&gt;AppModule -->
<g id="edge7" class="edge">
<title>BalanceXMesComponent&#45;&gt;AppModule</title>
<path fill="none" stroke="black" d="M10112,-84.96C10112,-107.15 10112,-141.8 10112,-141.8 10112,-141.8 5706.98,-141.8 5706.98,-141.8"/>
<polygon fill="black" stroke="black" points="5706.98,-138.3 5696.98,-141.8 5706.98,-145.3 5706.98,-138.3"/>
</g>
<!-- ClienteDetalleComponent -->
<g id="node8" class="node">
<title>ClienteDetalleComponent</title>
<polygon fill="#ffffb3" stroke="black" points="10014.19,-84.8 9851.81,-84.8 9851.81,-48.8 10014.19,-48.8 10014.19,-84.8"/>
<text text-anchor="middle" x="9933" y="-62.6" font-family="Times,serif" font-size="14.00">ClienteDetalleComponent</text>
</g>
<!-- ClienteDetalleComponent&#45;&gt;AppModule -->
<g id="edge8" class="edge">
<title>ClienteDetalleComponent&#45;&gt;AppModule</title>
<path fill="none" stroke="black" d="M9933,-85.09C9933,-107.01 9933,-140.8 9933,-140.8 9933,-140.8 5707,-140.8 5707,-140.8"/>
<polygon fill="black" stroke="black" points="5707,-137.3 5697,-140.8 5707,-144.3 5707,-137.3"/>
</g>
<!-- ClienteListaComponent -->
<g id="node9" class="node">
<title>ClienteListaComponent</title>
<polygon fill="#ffffb3" stroke="black" points="9833.76,-84.8 9684.24,-84.8 9684.24,-48.8 9833.76,-48.8 9833.76,-84.8"/>
<text text-anchor="middle" x="9759" y="-62.6" font-family="Times,serif" font-size="14.00">ClienteListaComponent</text>
</g>
<!-- ClienteListaComponent&#45;&gt;AppModule -->
<g id="edge9" class="edge">
<title>ClienteListaComponent&#45;&gt;AppModule</title>
<path fill="none" stroke="black" d="M9759,-84.84C9759,-106.46 9759,-139.8 9759,-139.8 9759,-139.8 5706.96,-139.8 5706.96,-139.8"/>
<polygon fill="black" stroke="black" points="5706.96,-136.3 5696.96,-139.8 5706.96,-143.3 5706.96,-136.3"/>
</g>
<!-- ClienteRegistroComponent -->
<g id="node10" class="node">
<title>ClienteRegistroComponent</title>
<polygon fill="#ffffb3" stroke="black" points="9666.71,-84.8 9497.29,-84.8 9497.29,-48.8 9666.71,-48.8 9666.71,-84.8"/>
<text text-anchor="middle" x="9582" y="-62.6" font-family="Times,serif" font-size="14.00">ClienteRegistroComponent</text>
</g>
<!-- ClienteRegistroComponent&#45;&gt;AppModule -->
<g id="edge10" class="edge">
<title>ClienteRegistroComponent&#45;&gt;AppModule</title>
<path fill="none" stroke="black" d="M9582,-84.97C9582,-106.3 9582,-138.8 9582,-138.8 9582,-138.8 5706.77,-138.8 5706.77,-138.8"/>
<polygon fill="black" stroke="black" points="5706.77,-135.3 5696.77,-138.8 5706.77,-142.3 5706.77,-135.3"/>
</g>
<!-- ComoFuncionaComponent -->
<g id="node11" class="node">
<title>ComoFuncionaComponent</title>
<polygon fill="#ffffb3" stroke="black" points="9479.66,-84.8 9312.34,-84.8 9312.34,-48.8 9479.66,-48.8 9479.66,-84.8"/>
<text text-anchor="middle" x="9396" y="-62.6" font-family="Times,serif" font-size="14.00">ComoFuncionaComponent</text>
</g>
<!-- ComoFuncionaComponent&#45;&gt;AppModule -->
<g id="edge11" class="edge">
<title>ComoFuncionaComponent&#45;&gt;AppModule</title>
<path fill="none" stroke="black" d="M9396,-85.08C9396,-106.12 9396,-137.8 9396,-137.8 9396,-137.8 5706.69,-137.8 5706.69,-137.8"/>
<polygon fill="black" stroke="black" points="5706.69,-134.3 5696.69,-137.8 5706.69,-141.3 5706.69,-134.3"/>
</g>
<!-- ContactoComponent -->
<g id="node12" class="node">
<title>ContactoComponent</title>
<polygon fill="#ffffb3" stroke="black" points="9293.88,-84.8 9162.12,-84.8 9162.12,-48.8 9293.88,-48.8 9293.88,-84.8"/>
<text text-anchor="middle" x="9228" y="-62.6" font-family="Times,serif" font-size="14.00">ContactoComponent</text>
</g>
<!-- ContactoComponent&#45;&gt;AppModule -->
<g id="edge12" class="edge">
<title>ContactoComponent&#45;&gt;AppModule</title>
<path fill="none" stroke="black" d="M9228,-84.83C9228,-105.57 9228,-136.8 9228,-136.8 9228,-136.8 5706.67,-136.8 5706.67,-136.8"/>
<polygon fill="black" stroke="black" points="5706.67,-133.3 5696.67,-136.8 5706.67,-140.3 5706.67,-133.3"/>
</g>
<!-- ContratoAyudaComponent -->
<g id="node13" class="node">
<title>ContratoAyudaComponent</title>
<polygon fill="#ffffb3" stroke="black" points="9143.65,-84.8 8976.35,-84.8 8976.35,-48.8 9143.65,-48.8 9143.65,-84.8"/>
<text text-anchor="middle" x="9060" y="-62.6" font-family="Times,serif" font-size="14.00">ContratoAyudaComponent</text>
</g>
<!-- ContratoAyudaComponent&#45;&gt;AppModule -->
<g id="edge13" class="edge">
<title>ContratoAyudaComponent&#45;&gt;AppModule</title>
<path fill="none" stroke="black" d="M9060,-85.02C9060,-105.17 9060,-134.8 9060,-134.8 9060,-134.8 5706.82,-134.8 5706.82,-134.8"/>
<polygon fill="black" stroke="black" points="5706.82,-131.3 5696.82,-134.8 5706.82,-138.3 5706.82,-131.3"/>
</g>
<!-- ContratoDetalleComponent -->
<g id="node14" class="node">
<title>ContratoDetalleComponent</title>
<polygon fill="#ffffb3" stroke="black" points="8958.25,-84.8 8787.75,-84.8 8787.75,-48.8 8958.25,-48.8 8958.25,-84.8"/>
<text text-anchor="middle" x="8873" y="-62.6" font-family="Times,serif" font-size="14.00">ContratoDetalleComponent</text>
</g>
<!-- ContratoDetalleComponent&#45;&gt;AppModule -->
<g id="edge14" class="edge">
<title>ContratoDetalleComponent&#45;&gt;AppModule</title>
<path fill="none" stroke="black" d="M8873,-85.11C8873,-104.95 8873,-133.8 8873,-133.8 8873,-133.8 5706.86,-133.8 5706.86,-133.8"/>
<polygon fill="black" stroke="black" points="5706.86,-130.3 5696.86,-133.8 5706.86,-137.3 5706.86,-130.3"/>
</g>
<!-- ContratoListaComponent -->
<g id="node15" class="node">
<title>ContratoListaComponent</title>
<polygon fill="#ffffb3" stroke="black" points="8769.32,-84.8 8610.68,-84.8 8610.68,-48.8 8769.32,-48.8 8769.32,-84.8"/>
<text text-anchor="middle" x="8690" y="-62.6" font-family="Times,serif" font-size="14.00">ContratoListaComponent</text>
</g>
<!-- ContratoListaComponent&#45;&gt;AppModule -->
<g id="edge15" class="edge">
<title>ContratoListaComponent&#45;&gt;AppModule</title>
<path fill="none" stroke="black" d="M8690,-84.83C8690,-104.38 8690,-132.8 8690,-132.8 8690,-132.8 5706.75,-132.8 5706.75,-132.8"/>
<polygon fill="black" stroke="black" points="5706.75,-129.3 5696.75,-132.8 5706.75,-136.3 5706.75,-129.3"/>
</g>
<!-- ContratoRegistroComponent -->
<g id="node16" class="node">
<title>ContratoRegistroComponent</title>
<polygon fill="#ffffb3" stroke="black" points="8592.77,-84.8 8415.23,-84.8 8415.23,-48.8 8592.77,-48.8 8592.77,-84.8"/>
<text text-anchor="middle" x="8504" y="-62.6" font-family="Times,serif" font-size="14.00">ContratoRegistroComponent</text>
</g>
<!-- ContratoRegistroComponent&#45;&gt;AppModule -->
<g id="edge16" class="edge">
<title>ContratoRegistroComponent&#45;&gt;AppModule</title>
<path fill="none" stroke="black" d="M8504,-84.91C8504,-104.14 8504,-131.8 8504,-131.8 8504,-131.8 5706.93,-131.8 5706.93,-131.8"/>
<polygon fill="black" stroke="black" points="5706.93,-128.3 5696.93,-131.8 5706.93,-135.3 5706.93,-128.3"/>
</g>
<!-- EntidadesAyudaComponent -->
<g id="node17" class="node">
<title>EntidadesAyudaComponent</title>
<polygon fill="#ffffb3" stroke="black" points="8396.86,-84.8 8223.14,-84.8 8223.14,-48.8 8396.86,-48.8 8396.86,-84.8"/>
<text text-anchor="middle" x="8310" y="-62.6" font-family="Times,serif" font-size="14.00">EntidadesAyudaComponent</text>
</g>
<!-- EntidadesAyudaComponent&#45;&gt;AppModule -->
<g id="edge17" class="edge">
<title>EntidadesAyudaComponent&#45;&gt;AppModule</title>
<path fill="none" stroke="black" d="M8310,-84.97C8310,-103.89 8310,-130.8 8310,-130.8 8310,-130.8 5706.7,-130.8 5706.7,-130.8"/>
<polygon fill="black" stroke="black" points="5706.7,-127.3 5696.7,-130.8 5706.7,-134.3 5706.7,-127.3"/>
</g>
<!-- InGaAyudaComponent -->
<g id="node18" class="node">
<title>InGaAyudaComponent</title>
<polygon fill="#ffffb3" stroke="black" points="8205.14,-84.8 8058.86,-84.8 8058.86,-48.8 8205.14,-48.8 8205.14,-84.8"/>
<text text-anchor="middle" x="8132" y="-62.6" font-family="Times,serif" font-size="14.00">InGaAyudaComponent</text>
</g>
<!-- InGaAyudaComponent&#45;&gt;AppModule -->
<g id="edge18" class="edge">
<title>InGaAyudaComponent&#45;&gt;AppModule</title>
<path fill="none" stroke="black" d="M8132,-85.02C8132,-103.63 8132,-129.8 8132,-129.8 8132,-129.8 5706.7,-129.8 5706.7,-129.8"/>
<polygon fill="black" stroke="black" points="5706.7,-126.3 5696.7,-129.8 5706.7,-133.3 5706.7,-126.3"/>
</g>
<!-- InGaInicioComponent -->
<g id="node19" class="node">
<title>InGaInicioComponent</title>
<polygon fill="#ffffb3" stroke="black" points="8040.97,-84.8 7899.03,-84.8 7899.03,-48.8 8040.97,-48.8 8040.97,-84.8"/>
<text text-anchor="middle" x="7970" y="-62.6" font-family="Times,serif" font-size="14.00">InGaInicioComponent</text>
</g>
<!-- InGaInicioComponent&#45;&gt;AppModule -->
<g id="edge19" class="edge">
<title>InGaInicioComponent&#45;&gt;AppModule</title>
<path fill="none" stroke="black" d="M7970,-85.1C7970,-103.07 7970,-127.8 7970,-127.8 7970,-127.8 5707.16,-127.8 5707.16,-127.8"/>
<polygon fill="black" stroke="black" points="5707.16,-124.3 5697.16,-127.8 5707.16,-131.3 5707.16,-124.3"/>
</g>
<!-- IngaDetalleComponent -->
<g id="node20" class="node">
<title>IngaDetalleComponent</title>
<polygon fill="#ffffb3" stroke="black" points="7881.13,-84.8 7734.87,-84.8 7734.87,-48.8 7881.13,-48.8 7881.13,-84.8"/>
<text text-anchor="middle" x="7808" y="-62.6" font-family="Times,serif" font-size="14.00">IngaDetalleComponent</text>
</g>
<!-- IngaDetalleComponent&#45;&gt;AppModule -->
<g id="edge20" class="edge">
<title>IngaDetalleComponent&#45;&gt;AppModule</title>
<path fill="none" stroke="black" d="M7808,-84.8C7808,-102.48 7808,-126.8 7808,-126.8 7808,-126.8 5707.04,-126.8 5707.04,-126.8"/>
<polygon fill="black" stroke="black" points="5707.04,-123.3 5697.04,-126.8 5707.04,-130.3 5707.04,-123.3"/>
</g>
<!-- IngaRegistroGeneralComponent -->
<g id="node21" class="node">
<title>IngaRegistroGeneralComponent</title>
<polygon fill="#ffffb3" stroke="black" points="7716.95,-84.8 7519.05,-84.8 7519.05,-48.8 7716.95,-48.8 7716.95,-84.8"/>
<text text-anchor="middle" x="7618" y="-62.6" font-family="Times,serif" font-size="14.00">IngaRegistroGeneralComponent</text>
</g>
<!-- IngaRegistroGeneralComponent&#45;&gt;AppModule -->
<g id="edge21" class="edge">
<title>IngaRegistroGeneralComponent&#45;&gt;AppModule</title>
<path fill="none" stroke="black" d="M7618,-84.82C7618,-102.17 7618,-125.8 7618,-125.8 7618,-125.8 5706.91,-125.8 5706.91,-125.8"/>
<polygon fill="black" stroke="black" points="5706.91,-122.3 5696.91,-125.8 5706.91,-129.3 5706.91,-122.3"/>
</g>
<!-- IngresoRegistroGeneralComponent -->
<g id="node22" class="node">
<title>IngresoRegistroGeneralComponent</title>
<polygon fill="#ffffb3" stroke="black" points="7500.56,-84.8 7285.44,-84.8 7285.44,-48.8 7500.56,-48.8 7500.56,-84.8"/>
<text text-anchor="middle" x="7393" y="-62.6" font-family="Times,serif" font-size="14.00">IngresoRegistroGeneralComponent</text>
</g>
<!-- IngresoRegistroGeneralComponent&#45;&gt;AppModule -->
<g id="edge22" class="edge">
<title>IngresoRegistroGeneralComponent&#45;&gt;AppModule</title>
<path fill="none" stroke="black" d="M7393,-84.83C7393,-101.86 7393,-124.8 7393,-124.8 7393,-124.8 5706.67,-124.8 5706.67,-124.8"/>
<polygon fill="black" stroke="black" points="5706.67,-121.3 5696.67,-124.8 5706.67,-128.3 5706.67,-121.3"/>
</g>
<!-- InicioAyudaComponent -->
<g id="node23" class="node">
<title>InicioAyudaComponent</title>
<polygon fill="#ffffb3" stroke="black" points="7267.81,-84.8 7116.19,-84.8 7116.19,-48.8 7267.81,-48.8 7267.81,-84.8"/>
<text text-anchor="middle" x="7192" y="-62.6" font-family="Times,serif" font-size="14.00">InicioAyudaComponent</text>
</g>
<!-- InicioAyudaComponent&#45;&gt;AppModule -->
<g id="edge23" class="edge">
<title>InicioAyudaComponent&#45;&gt;AppModule</title>
<path fill="none" stroke="black" d="M7192,-84.84C7192,-101.53 7192,-123.8 7192,-123.8 7192,-123.8 5706.91,-123.8 5706.91,-123.8"/>
<polygon fill="black" stroke="black" points="5706.91,-120.3 5696.91,-123.8 5706.91,-127.3 5706.91,-120.3"/>
</g>
<!-- InicioListaComponent -->
<g id="node24" class="node">
<title>InicioListaComponent</title>
<polygon fill="#ffffb3" stroke="black" points="7097.98,-84.8 6956.02,-84.8 6956.02,-48.8 7097.98,-48.8 7097.98,-84.8"/>
<text text-anchor="middle" x="7027" y="-62.6" font-family="Times,serif" font-size="14.00">InicioListaComponent</text>
</g>
<!-- InicioListaComponent&#45;&gt;AppModule -->
<g id="edge24" class="edge">
<title>InicioListaComponent&#45;&gt;AppModule</title>
<path fill="none" stroke="black" d="M7027,-84.83C7027,-101.2 7027,-122.8 7027,-122.8 7027,-122.8 5706.81,-122.8 5706.81,-122.8"/>
<polygon fill="black" stroke="black" points="5706.81,-119.3 5696.81,-122.8 5706.81,-126.3 5706.81,-119.3"/>
</g>
<!-- InmuebleDetalleComponent -->
<g id="node25" class="node">
<title>InmuebleDetalleComponent</title>
<polygon fill="#ffffb3" stroke="black" points="6938.12,-84.8 6763.88,-84.8 6763.88,-48.8 6938.12,-48.8 6938.12,-84.8"/>
<text text-anchor="middle" x="6851" y="-62.6" font-family="Times,serif" font-size="14.00">InmuebleDetalleComponent</text>
</g>
<!-- InmuebleDetalleComponent&#45;&gt;AppModule -->
<g id="edge25" class="edge">
<title>InmuebleDetalleComponent&#45;&gt;AppModule</title>
<path fill="none" stroke="black" d="M6851,-85.08C6851,-100.75 6851,-120.8 6851,-120.8 6851,-120.8 5706.86,-120.8 5706.86,-120.8"/>
<polygon fill="black" stroke="black" points="5706.87,-117.3 5696.86,-120.8 5706.86,-124.3 5706.87,-117.3"/>
</g>
<!-- InmuebleListaComponent -->
<g id="node26" class="node">
<title>InmuebleListaComponent</title>
<polygon fill="#ffffb3" stroke="black" points="6746.19,-84.8 6583.81,-84.8 6583.81,-48.8 6746.19,-48.8 6746.19,-84.8"/>
<text text-anchor="middle" x="6665" y="-62.6" font-family="Times,serif" font-size="14.00">InmuebleListaComponent</text>
</g>
<!-- InmuebleListaComponent&#45;&gt;AppModule -->
<g id="edge26" class="edge">
<title>InmuebleListaComponent&#45;&gt;AppModule</title>
<path fill="none" stroke="black" d="M6665,-85.04C6665,-100.37 6665,-119.8 6665,-119.8 6665,-119.8 5706.79,-119.8 5706.79,-119.8"/>
<polygon fill="black" stroke="black" points="5706.79,-116.3 5696.79,-119.8 5706.79,-123.3 5706.79,-116.3"/>
</g>
<!-- InmueblesAyudaComponent -->
<g id="node27" class="node">
<title>InmueblesAyudaComponent</title>
<polygon fill="#ffffb3" stroke="black" points="6565.47,-84.8 6388.53,-84.8 6388.53,-48.8 6565.47,-48.8 6565.47,-84.8"/>
<text text-anchor="middle" x="6477" y="-62.6" font-family="Times,serif" font-size="14.00">InmueblesAyudaComponent</text>
</g>
<!-- InmueblesAyudaComponent&#45;&gt;AppModule -->
<g id="edge27" class="edge">
<title>InmueblesAyudaComponent&#45;&gt;AppModule</title>
<path fill="none" stroke="black" d="M6477,-84.99C6477,-99.98 6477,-118.8 6477,-118.8 6477,-118.8 5706.89,-118.8 5706.89,-118.8"/>
<polygon fill="black" stroke="black" points="5706.89,-115.3 5696.89,-118.8 5706.89,-122.3 5706.89,-115.3"/>
</g>
<!-- InmueblesRegistroComponent -->
<g id="node28" class="node">
<title>InmueblesRegistroComponent</title>
<polygon fill="#ffffb3" stroke="black" points="6370.59,-84.8 6183.41,-84.8 6183.41,-48.8 6370.59,-48.8 6370.59,-84.8"/>
<text text-anchor="middle" x="6277" y="-62.6" font-family="Times,serif" font-size="14.00">InmueblesRegistroComponent</text>
</g>
<!-- InmueblesRegistroComponent&#45;&gt;AppModule -->
<g id="edge28" class="edge">
<title>InmueblesRegistroComponent&#45;&gt;AppModule</title>
<path fill="none" stroke="black" d="M6277,-84.92C6277,-99.58 6277,-117.8 6277,-117.8 6277,-117.8 5706.78,-117.8 5706.78,-117.8"/>
<polygon fill="black" stroke="black" points="5706.78,-114.3 5696.78,-117.8 5706.78,-121.3 5706.78,-114.3"/>
</g>
<!-- IntervinienteDetalleComponent -->
<g id="node29" class="node">
<title>IntervinienteDetalleComponent</title>
<polygon fill="#ffffb3" stroke="black" points="6165.78,-84.8 5972.22,-84.8 5972.22,-48.8 6165.78,-48.8 6165.78,-84.8"/>
<text text-anchor="middle" x="6069" y="-62.6" font-family="Times,serif" font-size="14.00">IntervinienteDetalleComponent</text>
</g>
<!-- IntervinienteDetalleComponent&#45;&gt;AppModule -->
<g id="edge29" class="edge">
<title>IntervinienteDetalleComponent&#45;&gt;AppModule</title>
<path fill="none" stroke="black" d="M6069,-84.85C6069,-99.17 6069,-116.8 6069,-116.8 6069,-116.8 5706.97,-116.8 5706.97,-116.8"/>
<polygon fill="black" stroke="black" points="5706.97,-113.3 5696.97,-116.8 5706.97,-120.3 5706.97,-113.3"/>
</g>
<!-- IntervinienteListaComponent -->
<g id="node30" class="node">
<title>IntervinienteListaComponent</title>
<polygon fill="#ffffb3" stroke="black" points="5954.35,-84.8 5773.65,-84.8 5773.65,-48.8 5954.35,-48.8 5954.35,-84.8"/>
<text text-anchor="middle" x="5864" y="-62.6" font-family="Times,serif" font-size="14.00">IntervinienteListaComponent</text>
</g>
<!-- IntervinienteListaComponent&#45;&gt;AppModule -->
<g id="edge30" class="edge">
<title>IntervinienteListaComponent&#45;&gt;AppModule</title>
<path fill="none" stroke="black" d="M5864,-85.05C5864,-98.98 5864,-115.8 5864,-115.8 5864,-115.8 5706.79,-115.8 5706.79,-115.8"/>
<polygon fill="black" stroke="black" points="5706.79,-112.3 5696.79,-115.8 5706.79,-119.3 5706.79,-112.3"/>
</g>
<!-- IntervinienteRegistroComponent -->
<g id="node31" class="node">
<title>IntervinienteRegistroComponent</title>
<polygon fill="#ffffb3" stroke="black" points="5755.3,-84.8 5554.7,-84.8 5554.7,-48.8 5755.3,-48.8 5755.3,-84.8"/>
<text text-anchor="middle" x="5655" y="-62.6" font-family="Times,serif" font-size="14.00">IntervinienteRegistroComponent</text>
</g>
<!-- IntervinienteRegistroComponent&#45;&gt;AppModule -->
<g id="edge31" class="edge">
<title>IntervinienteRegistroComponent&#45;&gt;AppModule</title>
<path fill="none" stroke="black" d="M5655,-84.91C5655,-84.91 5655,-103.79 5655,-103.79"/>
<polygon fill="black" stroke="black" points="5651.5,-103.79 5655,-113.79 5658.5,-103.79 5651.5,-103.79"/>
</g>
<!-- LoginComponent -->
<g id="node32" class="node">
<title>LoginComponent</title>
<polygon fill="#ffffb3" stroke="black" points="5536.27,-84.8 5421.73,-84.8 5421.73,-48.8 5536.27,-48.8 5536.27,-84.8"/>
<text text-anchor="middle" x="5479" y="-62.6" font-family="Times,serif" font-size="14.00">LoginComponent</text>
</g>
<!-- LoginComponent&#45;&gt;AppModule -->
<g id="edge32" class="edge">
<title>LoginComponent&#45;&gt;AppModule</title>
<path fill="none" stroke="black" d="M5479,-85.05C5479,-98.98 5479,-115.8 5479,-115.8 5479,-115.8 5603.29,-115.8 5603.29,-115.8"/>
<polygon fill="black" stroke="black" points="5603.29,-119.3 5613.29,-115.8 5603.29,-112.3 5603.29,-119.3"/>
</g>
<!-- ModificacionTiposComponent -->
<g id="node33" class="node">
<title>ModificacionTiposComponent</title>
<polygon fill="#ffffb3" stroke="black" points="5403.14,-84.8 5214.86,-84.8 5214.86,-48.8 5403.14,-48.8 5403.14,-84.8"/>
<text text-anchor="middle" x="5309" y="-62.6" font-family="Times,serif" font-size="14.00">ModificacionTiposComponent</text>
</g>
<!-- ModificacionTiposComponent&#45;&gt;AppModule -->
<g id="edge33" class="edge">
<title>ModificacionTiposComponent&#45;&gt;AppModule</title>
<path fill="none" stroke="black" d="M5309,-84.85C5309,-99.17 5309,-116.8 5309,-116.8 5309,-116.8 5603.26,-116.8 5603.26,-116.8"/>
<polygon fill="black" stroke="black" points="5603.26,-120.3 5613.26,-116.8 5603.26,-113.3 5603.26,-120.3"/>
</g>
<!-- NavAppComponent -->
<g id="node34" class="node">
<title>NavAppComponent</title>
<polygon fill="#ffffb3" stroke="black" points="5196.27,-84.8 5067.73,-84.8 5067.73,-48.8 5196.27,-48.8 5196.27,-84.8"/>
<text text-anchor="middle" x="5132" y="-62.6" font-family="Times,serif" font-size="14.00">NavAppComponent</text>
</g>
<!-- NavAppComponent&#45;&gt;AppModule -->
<g id="edge34" class="edge">
<title>NavAppComponent&#45;&gt;AppModule</title>
<path fill="none" stroke="black" d="M5132,-84.92C5132,-99.58 5132,-117.8 5132,-117.8 5132,-117.8 5603.08,-117.8 5603.08,-117.8"/>
<polygon fill="black" stroke="black" points="5603.08,-121.3 5613.08,-117.8 5603.08,-114.3 5603.08,-121.3"/>
</g>
<!-- PeriodoListaComponent -->
<g id="node35" class="node">
<title>PeriodoListaComponent</title>
<polygon fill="#ffffb3" stroke="black" points="5049.38,-84.8 4896.62,-84.8 4896.62,-48.8 5049.38,-48.8 5049.38,-84.8"/>
<text text-anchor="middle" x="4973" y="-62.6" font-family="Times,serif" font-size="14.00">PeriodoListaComponent</text>
</g>
<!-- PeriodoListaComponent&#45;&gt;AppModule -->
<g id="edge35" class="edge">
<title>PeriodoListaComponent&#45;&gt;AppModule</title>
<path fill="none" stroke="black" d="M4973,-84.99C4973,-99.98 4973,-118.8 4973,-118.8 4973,-118.8 5603.11,-118.8 5603.11,-118.8"/>
<polygon fill="black" stroke="black" points="5603.11,-122.3 5613.11,-118.8 5603.11,-115.3 5603.11,-122.3"/>
</g>
<!-- PeriodoRegistroComponent -->
<g id="node36" class="node">
<title>PeriodoRegistroComponent</title>
<polygon fill="#ffffb3" stroke="black" points="4878.32,-84.8 4705.68,-84.8 4705.68,-48.8 4878.32,-48.8 4878.32,-84.8"/>
<text text-anchor="middle" x="4792" y="-62.6" font-family="Times,serif" font-size="14.00">PeriodoRegistroComponent</text>
</g>
<!-- PeriodoRegistroComponent&#45;&gt;AppModule -->
<g id="edge36" class="edge">
<title>PeriodoRegistroComponent&#45;&gt;AppModule</title>
<path fill="none" stroke="black" d="M4792,-85.04C4792,-100.37 4792,-119.8 4792,-119.8 4792,-119.8 5603.08,-119.8 5603.08,-119.8"/>
<polygon fill="black" stroke="black" points="5603.08,-123.3 5613.08,-119.8 5603.08,-116.3 5603.08,-123.3"/>
</g>
<!-- PreciosComponent -->
<g id="node37" class="node">
<title>PreciosComponent</title>
<polygon fill="#ffffb3" stroke="black" points="4688.05,-84.8 4565.95,-84.8 4565.95,-48.8 4688.05,-48.8 4688.05,-84.8"/>
<text text-anchor="middle" x="4627" y="-62.6" font-family="Times,serif" font-size="14.00">PreciosComponent</text>
</g>
<!-- PreciosComponent&#45;&gt;AppModule -->
<g id="edge37" class="edge">
<title>PreciosComponent&#45;&gt;AppModule</title>
<path fill="none" stroke="black" d="M4627,-85.08C4627,-100.75 4627,-120.8 4627,-120.8 4627,-120.8 5603.11,-120.8 5603.11,-120.8"/>
<polygon fill="black" stroke="black" points="5603.11,-124.3 5613.11,-120.8 5603.11,-117.3 5603.11,-124.3"/>
</g>
<!-- PubliInicioComponent -->
<g id="node38" class="node">
<title>PubliInicioComponent</title>
<polygon fill="#ffffb3" stroke="black" points="4547.55,-84.8 4404.45,-84.8 4404.45,-48.8 4547.55,-48.8 4547.55,-84.8"/>
<text text-anchor="middle" x="4476" y="-62.6" font-family="Times,serif" font-size="14.00">PubliInicioComponent</text>
</g>
<!-- PubliInicioComponent&#45;&gt;AppModule -->
<g id="edge38" class="edge">
<title>PubliInicioComponent&#45;&gt;AppModule</title>
<path fill="none" stroke="black" d="M4476,-84.83C4476,-101.2 4476,-122.8 4476,-122.8 4476,-122.8 5603.04,-122.8 5603.04,-122.8"/>
<polygon fill="black" stroke="black" points="5603.04,-126.3 5613.04,-122.8 5603.04,-119.3 5603.04,-126.3"/>
</g>
<!-- QuienessomosComponent -->
<g id="node39" class="node">
<title>QuienessomosComponent</title>
<polygon fill="#ffffb3" stroke="black" points="4386.49,-84.8 4223.51,-84.8 4223.51,-48.8 4386.49,-48.8 4386.49,-84.8"/>
<text text-anchor="middle" x="4305" y="-62.6" font-family="Times,serif" font-size="14.00">QuienessomosComponent</text>
</g>
<!-- QuienessomosComponent&#45;&gt;AppModule -->
<g id="edge39" class="edge">
<title>QuienessomosComponent&#45;&gt;AppModule</title>
<path fill="none" stroke="black" d="M4305,-84.84C4305,-101.53 4305,-123.8 4305,-123.8 4305,-123.8 5603.12,-123.8 5603.12,-123.8"/>
<polygon fill="black" stroke="black" points="5603.12,-127.3 5613.12,-123.8 5603.12,-120.3 5603.12,-127.3"/>
</g>
<!-- RolListaComponent -->
<g id="node40" class="node">
<title>RolListaComponent</title>
<polygon fill="#ffffb3" stroke="black" points="4205.55,-84.8 4076.45,-84.8 4076.45,-48.8 4205.55,-48.8 4205.55,-84.8"/>
<text text-anchor="middle" x="4141" y="-62.6" font-family="Times,serif" font-size="14.00">RolListaComponent</text>
</g>
<!-- RolListaComponent&#45;&gt;AppModule -->
<g id="edge40" class="edge">
<title>RolListaComponent&#45;&gt;AppModule</title>
<path fill="none" stroke="black" d="M4141,-84.83C4141,-101.86 4141,-124.8 4141,-124.8 4141,-124.8 5603.32,-124.8 5603.32,-124.8"/>
<polygon fill="black" stroke="black" points="5603.32,-128.3 5613.32,-124.8 5603.32,-121.3 5603.32,-128.3"/>
</g>
<!-- RolRegistroComponent -->
<g id="node41" class="node">
<title>RolRegistroComponent</title>
<polygon fill="#ffffb3" stroke="black" points="4058.5,-84.8 3909.5,-84.8 3909.5,-48.8 4058.5,-48.8 4058.5,-84.8"/>
<text text-anchor="middle" x="3984" y="-62.6" font-family="Times,serif" font-size="14.00">RolRegistroComponent</text>
</g>
<!-- RolRegistroComponent&#45;&gt;AppModule -->
<g id="edge41" class="edge">
<title>RolRegistroComponent&#45;&gt;AppModule</title>
<path fill="none" stroke="black" d="M3984,-84.82C3984,-102.17 3984,-125.8 3984,-125.8 3984,-125.8 5603.28,-125.8 5603.28,-125.8"/>
<polygon fill="black" stroke="black" points="5603.28,-129.3 5613.28,-125.8 5603.28,-122.3 5603.28,-129.3"/>
</g>
<!-- SliderComponent -->
<g id="node42" class="node">
<title>SliderComponent</title>
<polygon fill="#ffffb3" stroke="black" points="3891.27,-84.8 3776.73,-84.8 3776.73,-48.8 3891.27,-48.8 3891.27,-84.8"/>
<text text-anchor="middle" x="3834" y="-62.6" font-family="Times,serif" font-size="14.00">SliderComponent</text>
</g>
<!-- SliderComponent&#45;&gt;AppModule -->
<g id="edge42" class="edge">
<title>SliderComponent&#45;&gt;AppModule</title>
<path fill="none" stroke="black" d="M3834,-84.8C3834,-102.48 3834,-126.8 3834,-126.8 3834,-126.8 5603.11,-126.8 5603.11,-126.8"/>
<polygon fill="black" stroke="black" points="5603.11,-130.3 5613.11,-126.8 5603.11,-123.3 5603.11,-130.3"/>
</g>
<!-- TipoCategoriaListaComponent -->
<g id="node43" class="node">
<title>TipoCategoriaListaComponent</title>
<polygon fill="#ffffb3" stroke="black" points="3759.19,-84.8 3568.81,-84.8 3568.81,-48.8 3759.19,-48.8 3759.19,-84.8"/>
<text text-anchor="middle" x="3664" y="-62.6" font-family="Times,serif" font-size="14.00">TipoCategoriaListaComponent</text>
</g>
<!-- TipoCategoriaListaComponent&#45;&gt;AppModule -->
<g id="edge43" class="edge">
<title>TipoCategoriaListaComponent&#45;&gt;AppModule</title>
<path fill="none" stroke="black" d="M3664,-85.1C3664,-103.07 3664,-127.8 3664,-127.8 3664,-127.8 5602.96,-127.8 5602.96,-127.8"/>
<polygon fill="black" stroke="black" points="5602.96,-131.3 5612.96,-127.8 5602.96,-124.3 5602.96,-131.3"/>
</g>
<!-- TipoCategoriaRegistroComponent -->
<g id="node44" class="node">
<title>TipoCategoriaRegistroComponent</title>
<polygon fill="#ffffb3" stroke="black" points="3550.64,-84.8 3341.36,-84.8 3341.36,-48.8 3550.64,-48.8 3550.64,-84.8"/>
<text text-anchor="middle" x="3446" y="-62.6" font-family="Times,serif" font-size="14.00">TipoCategoriaRegistroComponent</text>
</g>
<!-- TipoCategoriaRegistroComponent&#45;&gt;AppModule -->
<g id="edge44" class="edge">
<title>TipoCategoriaRegistroComponent&#45;&gt;AppModule</title>
<path fill="none" stroke="black" d="M3446,-85.02C3446,-103.63 3446,-129.8 3446,-129.8 3446,-129.8 5603.33,-129.8 5603.33,-129.8"/>
<polygon fill="black" stroke="black" points="5603.33,-133.3 5613.33,-129.8 5603.33,-126.3 5603.33,-133.3"/>
</g>
<!-- TipoCoceptoListaComponent -->
<g id="node45" class="node">
<title>TipoCoceptoListaComponent</title>
<polygon fill="#ffffb3" stroke="black" points="3323.42,-84.8 3140.58,-84.8 3140.58,-48.8 3323.42,-48.8 3323.42,-84.8"/>
<text text-anchor="middle" x="3232" y="-62.6" font-family="Times,serif" font-size="14.00">TipoCoceptoListaComponent</text>
</g>
<!-- TipoCoceptoListaComponent&#45;&gt;AppModule -->
<g id="edge45" class="edge">
<title>TipoCoceptoListaComponent&#45;&gt;AppModule</title>
<path fill="none" stroke="black" d="M3232,-84.97C3232,-103.89 3232,-130.8 3232,-130.8 3232,-130.8 5603.2,-130.8 5603.2,-130.8"/>
<polygon fill="black" stroke="black" points="5603.2,-134.3 5613.2,-130.8 5603.2,-127.3 5603.2,-134.3"/>
</g>
<!-- TipoConceptoRegistroComponent -->
<g id="node46" class="node">
<title>TipoConceptoRegistroComponent</title>
<polygon fill="#ffffb3" stroke="black" points="3122.37,-84.8 2913.63,-84.8 2913.63,-48.8 3122.37,-48.8 3122.37,-84.8"/>
<text text-anchor="middle" x="3018" y="-62.6" font-family="Times,serif" font-size="14.00">TipoConceptoRegistroComponent</text>
</g>
<!-- TipoConceptoRegistroComponent&#45;&gt;AppModule -->
<g id="edge46" class="edge">
<title>TipoConceptoRegistroComponent&#45;&gt;AppModule</title>
<path fill="none" stroke="black" d="M3018,-84.91C3018,-104.14 3018,-131.8 3018,-131.8 3018,-131.8 5603.31,-131.8 5603.31,-131.8"/>
<polygon fill="black" stroke="black" points="5603.31,-135.3 5613.31,-131.8 5603.31,-128.3 5603.31,-135.3"/>
</g>
<!-- TipoContratoListaComponent -->
<g id="node47" class="node">
<title>TipoContratoListaComponent</title>
<polygon fill="#ffffb3" stroke="black" points="2895.26,-84.8 2710.74,-84.8 2710.74,-48.8 2895.26,-48.8 2895.26,-84.8"/>
<text text-anchor="middle" x="2803" y="-62.6" font-family="Times,serif" font-size="14.00">TipoContratoListaComponent</text>
</g>
<!-- TipoContratoListaComponent&#45;&gt;AppModule -->
<g id="edge47" class="edge">
<title>TipoContratoListaComponent&#45;&gt;AppModule</title>
<path fill="none" stroke="black" d="M2803,-84.83C2803,-104.38 2803,-132.8 2803,-132.8 2803,-132.8 5603.31,-132.8 5603.31,-132.8"/>
<polygon fill="black" stroke="black" points="5603.31,-136.3 5613.31,-132.8 5603.31,-129.3 5603.31,-136.3"/>
</g>
<!-- TipoContratoRegistroComponent -->
<g id="node48" class="node">
<title>TipoContratoRegistroComponent</title>
<polygon fill="#ffffb3" stroke="black" points="2693.21,-84.8 2488.79,-84.8 2488.79,-48.8 2693.21,-48.8 2693.21,-84.8"/>
<text text-anchor="middle" x="2591" y="-62.6" font-family="Times,serif" font-size="14.00">TipoContratoRegistroComponent</text>
</g>
<!-- TipoContratoRegistroComponent&#45;&gt;AppModule -->
<g id="edge48" class="edge">
<title>TipoContratoRegistroComponent&#45;&gt;AppModule</title>
<path fill="none" stroke="black" d="M2591,-85.11C2591,-104.95 2591,-133.8 2591,-133.8 2591,-133.8 5603.14,-133.8 5603.14,-133.8"/>
<polygon fill="black" stroke="black" points="5603.14,-137.3 5613.14,-133.8 5603.14,-130.3 5603.14,-137.3"/>
</g>
<!-- TipoInmuebleListaComponent -->
<g id="node49" class="node">
<title>TipoInmuebleListaComponent</title>
<polygon fill="#ffffb3" stroke="black" points="2471.14,-84.8 2282.86,-84.8 2282.86,-48.8 2471.14,-48.8 2471.14,-84.8"/>
<text text-anchor="middle" x="2377" y="-62.6" font-family="Times,serif" font-size="14.00">TipoInmuebleListaComponent</text>
</g>
<!-- TipoInmuebleListaComponent&#45;&gt;AppModule -->
<g id="edge49" class="edge">
<title>TipoInmuebleListaComponent&#45;&gt;AppModule</title>
<path fill="none" stroke="black" d="M2377,-85.02C2377,-105.17 2377,-134.8 2377,-134.8 2377,-134.8 5603.26,-134.8 5603.26,-134.8"/>
<polygon fill="black" stroke="black" points="5603.26,-138.3 5613.26,-134.8 5603.26,-131.3 5603.26,-138.3"/>
</g>
<!-- TipoInmuebleRegistroComponent -->
<g id="node50" class="node">
<title>TipoInmuebleRegistroComponent</title>
<polygon fill="#ffffb3" stroke="black" points="2265.08,-84.8 2056.92,-84.8 2056.92,-48.8 2265.08,-48.8 2265.08,-84.8"/>
<text text-anchor="middle" x="2161" y="-62.6" font-family="Times,serif" font-size="14.00">TipoInmuebleRegistroComponent</text>
</g>
<!-- TipoInmuebleRegistroComponent&#45;&gt;AppModule -->
<g id="edge50" class="edge">
<title>TipoInmuebleRegistroComponent&#45;&gt;AppModule</title>
<path fill="none" stroke="black" d="M2161,-84.83C2161,-105.57 2161,-136.8 2161,-136.8 2161,-136.8 5603.33,-136.8 5603.33,-136.8"/>
<polygon fill="black" stroke="black" points="5603.33,-140.3 5613.33,-136.8 5603.33,-133.3 5603.33,-140.3"/>
</g>
<!-- TipoIntervinienteListaComponent -->
<g id="node51" class="node">
<title>TipoIntervinienteListaComponent</title>
<polygon fill="#ffffb3" stroke="black" points="2038.79,-84.8 1831.21,-84.8 1831.21,-48.8 2038.79,-48.8 2038.79,-84.8"/>
<text text-anchor="middle" x="1935" y="-62.6" font-family="Times,serif" font-size="14.00">TipoIntervinienteListaComponent</text>
</g>
<!-- TipoIntervinienteListaComponent&#45;&gt;AppModule -->
<g id="edge51" class="edge">
<title>TipoIntervinienteListaComponent&#45;&gt;AppModule</title>
<path fill="none" stroke="black" d="M1935,-85.08C1935,-106.12 1935,-137.8 1935,-137.8 1935,-137.8 5603.22,-137.8 5603.22,-137.8"/>
<polygon fill="black" stroke="black" points="5603.22,-141.3 5613.22,-137.8 5603.22,-134.3 5603.22,-141.3"/>
</g>
<!-- TipoIntervinienteRegistroComponent -->
<g id="node52" class="node">
<title>TipoIntervinienteRegistroComponent</title>
<polygon fill="#ffffb3" stroke="black" points="1813.24,-84.8 1586.76,-84.8 1586.76,-48.8 1813.24,-48.8 1813.24,-84.8"/>
<text text-anchor="middle" x="1700" y="-62.6" font-family="Times,serif" font-size="14.00">TipoIntervinienteRegistroComponent</text>
</g>
<!-- TipoIntervinienteRegistroComponent&#45;&gt;AppModule -->
<g id="edge52" class="edge">
<title>TipoIntervinienteRegistroComponent&#45;&gt;AppModule</title>
<path fill="none" stroke="black" d="M1700,-84.97C1700,-106.3 1700,-138.8 1700,-138.8 1700,-138.8 5603.26,-138.8 5603.26,-138.8"/>
<polygon fill="black" stroke="black" points="5603.26,-142.3 5613.26,-138.8 5603.26,-135.3 5603.26,-142.3"/>
</g>
<!-- TipoPagoListaComponent -->
<g id="node53" class="node">
<title>TipoPagoListaComponent</title>
<polygon fill="#ffffb3" stroke="black" points="1568.77,-84.8 1405.23,-84.8 1405.23,-48.8 1568.77,-48.8 1568.77,-84.8"/>
<text text-anchor="middle" x="1487" y="-62.6" font-family="Times,serif" font-size="14.00">TipoPagoListaComponent</text>
</g>
<!-- TipoPagoListaComponent&#45;&gt;AppModule -->
<g id="edge53" class="edge">
<title>TipoPagoListaComponent&#45;&gt;AppModule</title>
<path fill="none" stroke="black" d="M1487,-84.84C1487,-106.46 1487,-139.8 1487,-139.8 1487,-139.8 5603.07,-139.8 5603.07,-139.8"/>
<polygon fill="black" stroke="black" points="5603.07,-143.3 5613.07,-139.8 5603.07,-136.3 5603.07,-143.3"/>
</g>
<!-- TipoPagoRegistroComponent -->
<g id="node54" class="node">
<title>TipoPagoRegistroComponent</title>
<polygon fill="#ffffb3" stroke="black" points="1387.71,-84.8 1204.29,-84.8 1204.29,-48.8 1387.71,-48.8 1387.71,-84.8"/>
<text text-anchor="middle" x="1296" y="-62.6" font-family="Times,serif" font-size="14.00">TipoPagoRegistroComponent</text>
</g>
<!-- TipoPagoRegistroComponent&#45;&gt;AppModule -->
<g id="edge54" class="edge">
<title>TipoPagoRegistroComponent&#45;&gt;AppModule</title>
<path fill="none" stroke="black" d="M1296,-85.09C1296,-107.01 1296,-140.8 1296,-140.8 1296,-140.8 5603.26,-140.8 5603.26,-140.8"/>
<polygon fill="black" stroke="black" points="5603.26,-144.3 5613.26,-140.8 5603.26,-137.3 5603.26,-144.3"/>
</g>
<!-- TiposAyudaComponent -->
<g id="node55" class="node">
<title>TiposAyudaComponent</title>
<polygon fill="#ffffb3" stroke="black" points="1186.05,-84.8 1035.95,-84.8 1035.95,-48.8 1186.05,-48.8 1186.05,-84.8"/>
<text text-anchor="middle" x="1111" y="-62.6" font-family="Times,serif" font-size="14.00">TiposAyudaComponent</text>
</g>
<!-- TiposAyudaComponent&#45;&gt;AppModule -->
<g id="edge55" class="edge">
<title>TiposAyudaComponent&#45;&gt;AppModule</title>
<path fill="none" stroke="black" d="M1111,-84.96C1111,-107.15 1111,-141.8 1111,-141.8 1111,-141.8 5603.27,-141.8 5603.27,-141.8"/>
<polygon fill="black" stroke="black" points="5603.27,-145.3 5613.27,-141.8 5603.27,-138.3 5603.27,-145.3"/>
</g>
<!-- TiposComponent -->
<g id="node56" class="node">
<title>TiposComponent</title>
<polygon fill="#ffffb3" stroke="black" points="1017.72,-84.8 904.28,-84.8 904.28,-48.8 1017.72,-48.8 1017.72,-84.8"/>
<text text-anchor="middle" x="961" y="-62.6" font-family="Times,serif" font-size="14.00">TiposComponent</text>
</g>
<!-- TiposComponent&#45;&gt;AppModule -->
<g id="edge56" class="edge">
<title>TiposComponent&#45;&gt;AppModule</title>
<path fill="none" stroke="black" d="M961,-85.05C961,-107.82 961,-143.8 961,-143.8 961,-143.8 5602.99,-143.8 5602.99,-143.8"/>
<polygon fill="black" stroke="black" points="5602.99,-147.3 5612.99,-143.8 5602.99,-140.3 5602.99,-147.3"/>
</g>
<!-- UsuarioAyudaComponent -->
<g id="node57" class="node">
<title>UsuarioAyudaComponent</title>
<polygon fill="#ffffb3" stroke="black" points="886.48,-84.8 723.52,-84.8 723.52,-48.8 886.48,-48.8 886.48,-84.8"/>
<text text-anchor="middle" x="805" y="-62.6" font-family="Times,serif" font-size="14.00">UsuarioAyudaComponent</text>
</g>
<!-- UsuarioAyudaComponent&#45;&gt;AppModule -->
<g id="edge57" class="edge">
<title>UsuarioAyudaComponent&#45;&gt;AppModule</title>
<path fill="none" stroke="black" d="M805,-84.89C805,-107.93 805,-144.8 805,-144.8 805,-144.8 5603.07,-144.8 5603.07,-144.8"/>
<polygon fill="black" stroke="black" points="5603.07,-148.3 5613.07,-144.8 5603.07,-141.3 5603.07,-148.3"/>
</g>
<!-- UsuarioDetalleComponent -->
<g id="node58" class="node">
<title>UsuarioDetalleComponent</title>
<polygon fill="#ffffb3" stroke="black" points="705.08,-84.8 538.92,-84.8 538.92,-48.8 705.08,-48.8 705.08,-84.8"/>
<text text-anchor="middle" x="622" y="-62.6" font-family="Times,serif" font-size="14.00">UsuarioDetalleComponent</text>
</g>
<!-- UsuarioDetalleComponent&#45;&gt;AppModule -->
<g id="edge58" class="edge">
<title>UsuarioDetalleComponent&#45;&gt;AppModule</title>
<path fill="none" stroke="black" d="M622,-85.12C622,-108.46 622,-145.8 622,-145.8 622,-145.8 5603,-145.8 5603,-145.8"/>
<polygon fill="black" stroke="black" points="5603,-149.3 5613,-145.8 5603,-142.3 5603,-149.3"/>
</g>
<!-- UsuarioListaComponent -->
<g id="node59" class="node">
<title>UsuarioListaComponent</title>
<polygon fill="#ffffb3" stroke="black" points="520.65,-84.8 367.35,-84.8 367.35,-48.8 520.65,-48.8 520.65,-84.8"/>
<text text-anchor="middle" x="444" y="-62.6" font-family="Times,serif" font-size="14.00">UsuarioListaComponent</text>
</g>
<!-- UsuarioListaComponent&#45;&gt;AppModule -->
<g id="edge59" class="edge">
<title>UsuarioListaComponent&#45;&gt;AppModule</title>
<path fill="none" stroke="black" d="M444,-84.95C444,-108.56 444,-146.8 444,-146.8 444,-146.8 5603.05,-146.8 5603.05,-146.8"/>
<polygon fill="black" stroke="black" points="5603.05,-150.3 5613.05,-146.8 5603.05,-143.3 5603.05,-150.3"/>
</g>
<!-- UsuarioRegistroComponent -->
<g id="node60" class="node">
<title>UsuarioRegistroComponent</title>
<polygon fill="#ffffb3" stroke="black" points="349.6,-84.8 176.4,-84.8 176.4,-48.8 349.6,-48.8 349.6,-84.8"/>
<text text-anchor="middle" x="263" y="-62.6" font-family="Times,serif" font-size="14.00">UsuarioRegistroComponent</text>
</g>
<!-- UsuarioRegistroComponent&#45;&gt;AppModule -->
<g id="edge60" class="edge">
<title>UsuarioRegistroComponent&#45;&gt;AppModule</title>
<path fill="none" stroke="black" d="M263,-85.18C263,-109.08 263,-147.8 263,-147.8 263,-147.8 5603.16,-147.8 5603.16,-147.8"/>
<polygon fill="black" stroke="black" points="5603.16,-151.3 5613.16,-147.8 5603.16,-144.3 5603.16,-151.3"/>
</g>
<!-- AppComponent  -->
<g id="node63" class="node">
<title>AppComponent </title>
<polygon fill="#80b1d3" stroke="black" points="5709.44,-214.8 5600.56,-214.8 5600.56,-178.8 5709.44,-178.8 5709.44,-214.8"/>
<text text-anchor="middle" x="5655" y="-192.6" font-family="Times,serif" font-size="14.00">AppComponent </text>
</g>
<!-- AppModule&#45;&gt;AppComponent  -->
<g id="edge62" class="edge">
<title>AppModule&#45;&gt;AppComponent </title>
<path fill="none" stroke="black" stroke-dasharray="1,5" d="M5655,-149.91C5655,-149.91 5655,-168.79 5655,-168.79"/>
<polygon fill="black" stroke="black" points="5651.5,-168.79 5655,-178.79 5658.5,-168.79 5651.5,-168.79"/>
</g>
<!-- AppRoutingModule -->
<g id="node62" class="node">
<title>AppRoutingModule</title>
<polygon fill="#8dd3c7" stroke="black" points="152.28,-84.8 149.28,-88.8 128.28,-88.8 125.28,-84.8 23.72,-84.8 23.72,-48.8 152.28,-48.8 152.28,-84.8"/>
<text text-anchor="middle" x="88" y="-62.6" font-family="Times,serif" font-size="14.00">AppRoutingModule</text>
</g>
<!-- AppRoutingModule&#45;&gt;AppModule -->
<g id="edge61" class="edge">
<title>AppRoutingModule&#45;&gt;AppModule</title>
<path fill="none" stroke="black" d="M88,-85C88,-109.16 88,-148.8 88,-148.8 88,-148.8 5603,-148.8 5603,-148.8"/>
<polygon fill="black" stroke="black" points="5603,-152.3 5613,-148.8 5603,-145.3 5603,-152.3"/>
</g>
</g>
</svg>
